  0
SECTION
  2
HEADER
  9
$ACADVER
  1
AC1015
  9
$ACADMAINTVER
 70
     6
  9
$DWGCODEPAGE
  3
ANSI_1252
  9
$INSBASE
 10
0.0
 20
0.0
 30
0.0
  9
$EXTMIN
 10
5.5498355743
 20
4.7191931021
 30
0.0
  9
$EXTMAX
 10
740.1677887634
 20
825.9369939679
 30
0.0
  9
$LIMMIN
 10
0.0
 20
0.0
  9
$LIMMAX
 10
420.0
 20
297.0
  9
$ORTHOMODE
 70
     0
  9
$REGENMODE
 70
     1
  9
$FILLMODE
 70
     1
  9
$QTEXTMODE
 70
     0
  9
$MIRRTEXT
 70
     1
  9
$LTSCALE
 40
1.0
  9
$ATTMODE
 70
     1
  9
$TEXTSIZE
 40
3.5
  9
$TRACEWID
 40
1.0
  9
$TEXTSTYLE
  7
Standard
  9
$CLAYER
  8
0
  9
$CELTYPE
  6
ByLayer
  9
$CECOLOR
 62
   256
  9
$CELTSCALE
 40
1.0
  9
$DISPSILH
 70
     0
  9
$DIMSCALE
 40
1.0
  9
$DIMASZ
 40
3.302
  9
$DIMEXO
 40
0.0
  9
$DIMDLI
 40
3.75
  9
$DIMRND
 40
0.0
  9
$DIMDLE
 40
0.0
  9
$DIMEXE
 40
1.0
  9
$DIMTP
 40
0.0
  9
$DIMTM
 40
0.0
  9
$DIMTXT
 40
3.5
  9
$DIMCEN
 40
2.5
  9
$DIMTSZ
 40
0.0
  9
$DIMTOL
 70
     0
  9
$DIMLIM
 70
     0
  9
$DIMTIH
 70
     1
  9
$DIMTOH
 70
     1
  9
$DIMSE1
 70
     0
  9
$DIMSE2
 70
     0
  9
$DIMTAD
 70
     1
  9
$DIMZIN
 70
     1
  9
$DIMBLK
  1

  9
$DIMASO
 70
     1
  9
$DIMSHO
 70
     1
  9
$DIMPOST
  1

  9
$DIMAPOST
  1

  9
$DIMALT
 70
     0
  9
$DIMALTD
 70
     3
  9
$DIMALTF
 40
0.0393700787
  9
$DIMLFAC
 40
1.0
  9
$DIMTOFL
 70
     1
  9
$DIMTVP
 40
0.0
  9
$DIMTIX
 70
     0
  9
$DIMSOXD
 70
     0
  9
$DIMSAH
 70
     0
  9
$DIMBLK1
  1

  9
$DIMBLK2
  1

  9
$DIMSTYLE
  2
ISO-25
  9
$DIMCLRD
 70
     0
  9
$DIMCLRE
 70
     0
  9
$DIMCLRT
 70
     0
  9
$DIMTFAC
 40
1.0
  9
$DIMGAP
 40
1.524
  9
$DIMJUST
 70
     0
  9
$DIMSD1
 70
     0
  9
$DIMSD2
 70
     0
  9
$DIMTOLJ
 70
     0
  9
$DIMTZIN
 70
     1
  9
$DIMALTZ
 70
     0
  9
$DIMALTTZ
 70
     0
  9
$DIMUPT
 70
     0
  9
$DIMDEC
 70
     2
  9
$DIMTDEC
 70
     2
  9
$DIMALTU
 70
     2
  9
$DIMALTTD
 70
     3
  9
$DIMTXSTY
  7
Standard
  9
$DIMAUNIT
 70
     0
  9
$DIMADEC
 70
     2
  9
$DIMALTRND
 40
0.0
  9
$DIMAZIN
 70
     0
  9
$DIMDSEP
 70
    44
  9
$DIMATFIT
 70
     3
  9
$DIMFRAC
 70
     0
  9
$DIMLDRBLK
  1

  9
$DIMLUNIT
 70
     2
  9
$DIMLWD
 70
    -2
  9
$DIMLWE
 70
    -2
  9
$DIMTMOVE
 70
     0
  9
$LUNITS
 70
     2
  9
$LUPREC
 70
     2
  9
$SKETCHINC
 40
1.0
  9
$FILLETRAD
 40
10.0
  9
$AUNITS
 70
     0
  9
$AUPREC
 70
     2
  9
$MENU
  1
.
  9
$ELEVATION
 40
0.0
  9
$PELEVATION
 40
0.0
  9
$THICKNESS
 40
0.0
  9
$LIMCHECK
 70
     0
  9
$CHAMFERA
 40
0.0
  9
$CHAMFERB
 40
0.0
  9
$CHAMFERC
 40
0.0
  9
$CHAMFERD
 40
0.0
  9
$SKPOLY
 70
     0
  9
$TDCREATE
 40
2459311.84904706
  9
$TDUCREATE
 40
2459312.057380394
  9
$TDUPDATE
 40
2459311.849075127
  9
$TDUUPDATE
 40
2459312.05740846
  9
$TDINDWG
 40
0.0000000116
  9
$TDUSRTIMER
 40
0.0000000116
  9
$USRTIMER
 70
     1
  9
$ANGBASE
 50
0.0
  9
$ANGDIR
 70
     0
  9
$PDMODE
 70
     0
  9
$PDSIZE
 40
-1.0
  9
$PLINEWID
 40
0.0
  9
$SPLFRAME
 70
     0
  9
$SPLINETYPE
 70
     6
  9
$SPLINESEGS
 70
     8
  9
$HANDSEED
  5
236
  9
$SURFTAB1
 70
     6
  9
$SURFTAB2
 70
     6
  9
$SURFTYPE
 70
     6
  9
$SURFU
 70
     6
  9
$SURFV
 70
     6
  9
$UCSBASE
  2

  9
$UCSNAME
  2

  9
$UCSORG
 10
0.0
 20
0.0
 30
0.0
  9
$UCSXDIR
 10
1.0
 20
0.0
 30
0.0
  9
$UCSYDIR
 10
0.0
 20
1.0
 30
0.0
  9
$UCSORTHOREF
  2

  9
$UCSORTHOVIEW
 70
     0
  9
$UCSORGTOP
 10
0.0
 20
0.0
 30
0.0
  9
$UCSORGBOTTOM
 10
0.0
 20
0.0
 30
0.0
  9
$UCSORGLEFT
 10
0.0
 20
0.0
 30
0.0
  9
$UCSORGRIGHT
 10
0.0
 20
0.0
 30
0.0
  9
$UCSORGFRONT
 10
0.0
 20
0.0
 30
0.0
  9
$UCSORGBACK
 10
0.0
 20
0.0
 30
0.0
  9
$PUCSBASE
  2

  9
$PUCSNAME
  2

  9
$PUCSORG
 10
0.0
 20
0.0
 30
0.0
  9
$PUCSXDIR
 10
1.0
 20
0.0
 30
0.0
  9
$PUCSYDIR
 10
0.0
 20
1.0
 30
0.0
  9
$PUCSORTHOREF
  2

  9
$PUCSORTHOVIEW
 70
     0
  9
$PUCSORGTOP
 10
0.0
 20
0.0
 30
0.0
  9
$PUCSORGBOTTOM
 10
0.0
 20
0.0
 30
0.0
  9
$PUCSORGLEFT
 10
0.0
 20
0.0
 30
0.0
  9
$PUCSORGRIGHT
 10
0.0
 20
0.0
 30
0.0
  9
$PUCSORGFRONT
 10
0.0
 20
0.0
 30
0.0
  9
$PUCSORGBACK
 10
0.0
 20
0.0
 30
0.0
  9
$USERI1
 70
     0
  9
$USERI2
 70
     0
  9
$USERI3
 70
     0
  9
$USERI4
 70
     0
  9
$USERI5
 70
     0
  9
$USERR1
 40
0.0
  9
$USERR2
 40
0.0
  9
$USERR3
 40
0.0
  9
$USERR4
 40
0.0
  9
$USERR5
 40
0.0
  9
$WORLDVIEW
 70
     1
  9
$SHADEDGE
 70
     3
  9
$SHADEDIF
 70
    70
  9
$TILEMODE
 70
     1
  9
$MAXACTVP
 70
    64
  9
$PINSBASE
 10
0.0
 20
0.0
 30
0.0
  9
$PLIMCHECK
 70
     0
  9
$PEXTMIN
 10
1.0000000000E+20
 20
1.0000000000E+20
 30
1.0000000000E+20
  9
$PEXTMAX
 10
-1.0000000000E+20
 20
-1.0000000000E+20
 30
-1.0000000000E+20
  9
$PLIMMIN
 10
0.0
 20
0.0
  9
$PLIMMAX
 10
420.0
 20
297.0
  9
$UNITMODE
 70
     0
  9
$VISRETAIN
 70
     1
  9
$PLINEGEN
 70
     0
  9
$PSLTSCALE
 70
     1
  9
$TREEDEPTH
 70
  3020
  9
$CMLSTYLE
  2
Standard
  9
$CMLJUST
 70
     0
  9
$CMLSCALE
 40
20.0
  9
$PROXYGRAPHICS
 70
     1
  9
$MEASUREMENT
 70
     1
  9
$CELWEIGHT
370
    -1
  9
$ENDCAPS
280
     0
  9
$JOINSTYLE
280
     0
  9
$LWDISPLAY
290
     1
  9
$INSUNITS
 70
     4
  9
$HYPERLINKBASE
  1

  9
$STYLESHEET
  1

  9
$XEDIT
290
     1
  9
$CEPSNTYPE
380
     0
  9
$PSTYLEMODE
290
     1
  9
$FINGERPRINTGUID
  2
{4102a56e-93df-4580-af99-12459c64ce98}
  9
$VERSIONGUID
  2
{FAEB1C32-E019-11D5-929B-00C0DF256EC4}
  9
$EXTNAMES
290
     1
  9
$PSVPSCALE
 40
0.0
  9
$OLESTARTUP
290
     0
  0
ENDSEC
  0
SECTION
  2
CLASSES
  0
CLASS
  1
ACDBDICTIONARYWDFLT
  2
AcDbDictionaryWithDefault
  3
ObjectDBX Classes
 90
        0
280
     0
281
     0
  0
CLASS
  1
VISUALSTYLE
  2
AcDbVisualStyle
  3
ObjectDBX Classes
 90
     4095
280
     0
281
     0
  0
CLASS
  1
MATERIAL
  2
AcDbMaterial
  3
ObjectDBX Classes
 90
     1153
280
     0
281
     0
  0
CLASS
  1
SCALE
  2
AcDbScale
  3
ObjectDBX Classes
 90
     1153
280
     0
281
     0
  0
CLASS
  1
TABLESTYLE
  2
AcDbTableStyle
  3
ObjectDBX Classes
 90
     4095
280
     0
281
     0
  0
CLASS
  1
MLEADERSTYLE
  2
AcDbMLeaderStyle
  3
ACDB_MLEADERSTYLE_CLASS
 90
     4095
280
     0
281
     0
  0
CLASS
  1
SUN
  2
AcDbSun
  3
SCENEOE
 90
     1153
280
     0
281
     0
  0
CLASS
  1
ACDBPLACEHOLDER
  2
AcDbPlaceHolder
  3
ObjectDBX Classes
 90
        0
280
     0
281
     0
  0
CLASS
  1
LAYOUT
  2
AcDbLayout
  3
ObjectDBX Classes
 90
        0
280
     0
281
     0
  0
ENDSEC
  0
SECTION
  2
TABLES
  0
TABLE
  2
VPORT
  5
8
330
0
100
AcDbSymbolTable
 70
     1
  0
VPORT
  5
29
330
8
100
AcDbSymbolTableRecord
100
AcDbViewportTableRecord
  2
*Active
 70
     0
 10
0.0
 20
0.0
 11
1.0
 21
1.0
 12
372.8588121688
 22
415.328093535
 13
0.0
 23
0.0
 14
10.0
 24
10.0
 15
10.0
 25
10.0
 16
0.0
 26
0.0
 36
1.0
 17
0.0
 27
0.0
 37
0.0
 40
837.6421568831
 41
0.8945470403
 42
50.0
 43
0.0
 44
0.0
 50
0.0
 51
0.0
 71
     0
 72
   100
 73
     1
 74
     3
 75
     0
 76
     0
 77
     0
 78
     0
281
     0
 65
     1
110
0.0
120
0.0
130
0.0
111
1.0
121
0.0
131
0.0
112
0.0
122
1.0
132
0.0
 79
     0
146
0.0
  0
ENDTAB
  0
TABLE
  2
LTYPE
  5
5
330
0
100
AcDbSymbolTable
 70
     6
  0
LTYPE
  5
14
330
5
100
AcDbSymbolTableRecord
100
AcDbLinetypeTableRecord
  2
ByBlock
 70
     0
  3

 72
    65
 73
     0
 40
0.0
  0
LTYPE
  5
15
330
5
100
AcDbSymbolTableRecord
100
AcDbLinetypeTableRecord
  2
ByLayer
 70
     0
  3

 72
    65
 73
     0
 40
0.0
  0
LTYPE
  5
16
330
5
100
AcDbSymbolTableRecord
100
AcDbLinetypeTableRecord
  2
Continuous
 70
     0
  3
Solid line
 72
    65
 73
     0
 40
0.0
  0
LTYPE
  5
6E
330
5
100
AcDbSymbolTableRecord
100
AcDbLinetypeTableRecord
  2
HIDDEN
 70
     0
  3
Hidden __ __ __ __ __ __ __ __ __ __ __ __ __ __
 72
    65
 73
     2
 40
1.905
 49
1.27
 74
     0
 49
-0.635
 74
     0
  0
LTYPE
  5
6F
330
5
100
AcDbSymbolTableRecord
100
AcDbLinetypeTableRecord
  2
PHANTOM
 70
     0
  3
Phantom ______  __  __  ______  __  __  ______
 72
    65
 73
     6
 40
12.7
 49
6.35
 74
     0
 49
-1.27
 74
     0
 49
1.27
 74
     0
 49
-1.27
 74
     0
 49
1.27
 74
     0
 49
-1.27
 74
     0
  0
LTYPE
  5
70
330
5
100
AcDbSymbolTableRecord
100
AcDbLinetypeTableRecord
  2
CENTER
 70
     0
  3
Center ____ _ ____ _ ____ _ ____ _ ____ _ ____
 72
    65
 73
     4
 40
10.16
 49
6.35
 74
     0
 49
-1.27
 74
     0
 49
1.27
 74
     0
 49
-1.27
 74
     0
  0
LTYPE
  5
71
330
5
100
AcDbSymbolTableRecord
100
AcDbLinetypeTableRecord
  2
CENTERX2
 70
     0
  3
Center (2x) ________  __  ________  __  _____
 72
    65
 73
     4
 40
20.32
 49
12.7
 74
     0
 49
-2.54
 74
     0
 49
2.54
 74
     0
 49
-2.54
 74
     0
  0
LTYPE
  5
72
330
5
100
AcDbSymbolTableRecord
100
AcDbLinetypeTableRecord
  2
DOT2
 70
     0
  3
Dot (.5x) ........................................
 72
    65
 73
     2
 40
0.635
 49
0.0
 74
     0
 49
-0.635
 74
     0
  0
ENDTAB
  0
TABLE
  2
LAYER
  5
2
330
0
100
AcDbSymbolTable
 70
     1
  0
LAYER
  5
10
330
2
100
AcDbSymbolTableRecord
100
AcDbLayerTableRecord
  2
0
 70
     0
 62
     7
  6
Continuous
370
    -3
390
F
  0
ENDTAB
  0
TABLE
  2
STYLE
  5
3
330
0
100
AcDbSymbolTable
 70
     1
  0
STYLE
  5
11
330
3
100
AcDbSymbolTableRecord
100
AcDbTextStyleTableRecord
  2
Standard
 70
     0
 40
0.0
 41
1.0
 50
0.0
 71
     0
 42
3.5
  3
txt
  4

  0
ENDTAB
  0
TABLE
  2
VIEW
  5
6
330
0
100
AcDbSymbolTable
 70
     0
  0
ENDTAB
  0
TABLE
  2
UCS
  5
7
330
0
100
AcDbSymbolTable
 70
     0
  0
ENDTAB
  0
TABLE
  2
APPID
  5
9
330
0
100
AcDbSymbolTable
 70
     1
  0
APPID
  5
12
330
9
100
AcDbSymbolTableRecord
100
AcDbRegAppTableRecord
  2
ACAD
 70
     0
  0
ENDTAB
  0
TABLE
  2
DIMSTYLE
  5
A
330
0
100
AcDbSymbolTable
 70
     1
100
AcDbDimStyleTable
  0
DIMSTYLE
105
27
330
A
100
AcDbSymbolTableRecord
100
AcDbDimStyleTableRecord
  2
ISO-25
 70
     0
 41
2.5
 42
0.625
 43
3.75
 44
1.25
 73
     0
 74
     0
 77
     1
 78
     8
140
2.5
141
2.5
143
0.0393700787
147
0.625
171
     3
172
     1
178
     0
271
     2
272
     2
274
     3
278
    44
283
     0
284
     8
340
11
  0
ENDTAB
  0
TABLE
  2
BLOCK_RECORD
  5
1
330
0
100
AcDbSymbolTable
 70
     1
  0
BLOCK_RECORD
  5
1F
330
1
100
AcDbSymbolTableRecord
100
AcDbBlockTableRecord
  2
*Model_Space
340
22
  0
BLOCK_RECORD
  5
1B
330
1
100
AcDbSymbolTableRecord
100
AcDbBlockTableRecord
  2
*Paper_Space
340
1E
  0
BLOCK_RECORD
  5
23
330
1
100
AcDbSymbolTableRecord
100
AcDbBlockTableRecord
  2
*Paper_Space0
340
26
  0
ENDTAB
  0
ENDSEC
  0
SECTION
  2
BLOCKS
  0
BLOCK
  5
20
330
1F
100
AcDbEntity
  8
0
100
AcDbBlockBegin
  2
*Model_Space
 70
     0
 10
0.0
 20
0.0
 30
0.0
  3
*Model_Space
  1

  0
ENDBLK
  5
21
330
1F
100
AcDbEntity
  8
0
100
AcDbBlockEnd
  0
BLOCK
  5
1C
330
1B
100
AcDbEntity
 67
     1
  8
0
100
AcDbBlockBegin
  2
*Paper_Space
 70
     0
 10
0.0
 20
0.0
 30
0.0
  3
*Paper_Space
  1

  0
ENDBLK
  5
1D
330
1B
100
AcDbEntity
 67
     1
  8
0
100
AcDbBlockEnd
  0
BLOCK
  5
24
330
23
100
AcDbEntity
  8
0
100
AcDbBlockBegin
  2
*Paper_Space0
 70
     0
 10
0.0
 20
0.0
 30
0.0
  3
*Paper_Space0
  1

  0
ENDBLK
  5
25
330
23
100
AcDbEntity
  8
0
100
AcDbBlockEnd
  0
ENDSEC
  0
SECTION
  2
ENTITIES
  0
CIRCLE
  5
73
330
1F
100
AcDbEntity
  8
0
  6
Continuous
 62
     7
100
AcDbCircle
 10
110.8757443143
 20
39.7094341142
 30
0.0
 40
4.000000000000028
  0
CIRCLE
  5
74
330
1F
100
AcDbEntity
  8
0
  6
Continuous
 62
     7
100
AcDbCircle
 10
12.3757443143
 20
40.7094341142
 30
0.0
 40
1.499999999999999
  0
CIRCLE
  5
75
330
1F
100
AcDbEntity
  8
0
  6
Continuous
 62
     7
100
AcDbCircle
 10
12.3757443143
 20
54.7094341142
 30
0.0
 40
1.500000000000002
  0
CIRCLE
  5
76
330
1F
100
AcDbEntity
  8
0
  6
Continuous
 62
     7
100
AcDbCircle
 10
209.3757443143
 20
54.7094341142
 30
0.0
 40
1.499999999999954
  0
CIRCLE
  5
77
330
1F
100
AcDbEntity
  8
0
  6
Continuous
 62
     7
100
AcDbCircle
 10
209.3757443143
 20
40.7094341142
 30
0.0
 40
1.499999999999981
  0
CIRCLE
  5
78
330
1F
100
AcDbEntity
  8
0
  6
Continuous
 62
     7
100
AcDbCircle
 10
498.3351241386
 20
234.0273620985
 30
0.0
 40
2.499999999999957
  0
CIRCLE
  5
79
330
1F
100
AcDbEntity
  8
0
  6
Continuous
 62
     7
100
AcDbCircle
 10
509.3351241386
 20
180.0173620985
 30
0.0
 40
2.499999999999886
  0
CIRCLE
  5
7A
330
1F
100
AcDbEntity
  8
0
  6
Continuous
 62
     7
100
AcDbCircle
 10
509.3351241386
 20
88.0173620985
 30
0.0
 40
2.499999999999895
  0
CIRCLE
  5
7B
330
1F
100
AcDbEntity
  8
0
  6
Continuous
 62
     7
100
AcDbCircle
 10
391.6684574719
 20
67.0273620985
 30
0.0
 40
2.500000000000008
  0
CIRCLE
  5
7C
330
1F
100
AcDbEntity
  8
0
  6
Continuous
 62
     7
100
AcDbCircle
 10
317.3351241386
 20
88.0173620985
 30
0.0
 40
2.500000000000008
  0
CIRCLE
  5
7D
330
1F
100
AcDbEntity
  8
0
  6
Continuous
 62
     7
100
AcDbCircle
 10
317.3351241386
 20
180.0173620985
 30
0.0
 40
2.500000000000004
  0
CIRCLE
  5
7E
330
1F
100
AcDbEntity
  8
0
  6
Continuous
 62
     7
100
AcDbCircle
 10
328.3351241386
 20
234.0273620985
 30
0.0
 40
2.500000000000012
  0
CIRCLE
  5
7F
330
1F
100
AcDbEntity
  8
0
  6
Continuous
 62
     7
100
AcDbCircle
 10
435.0017908052
 20
67.0273620985
 30
0.0
 40
2.499999999999949
  0
CIRCLE
  5
80
330
1F
100
AcDbEntity
  8
0
  6
Continuous
 62
     7
100
AcDbCircle
 10
413.3351241386
 20
62.0273620985
 30
0.0
 40
9.999999999999963
  0
CIRCLE
  5
81
330
1F
100
AcDbEntity
  8
0
  6
Continuous
 62
     7
100
AcDbCircle
 10
275.6443920358
 20
117.0363246754
 30
0.0
 40
2.500000000000062
  0
CIRCLE
  5
82
330
1F
100
AcDbEntity
  8
0
  6
Continuous
 62
     7
100
AcDbCircle
 10
264.6443920358
 20
171.0463246754
 30
0.0
 40
2.500000000000058
  0
CIRCLE
  5
83
330
1F
100
AcDbEntity
  8
0
  6
Continuous
 62
     7
100
AcDbCircle
 10
264.6443920358
 20
263.0463246754
 30
0.0
 40
2.500000000000049
  0
CIRCLE
  5
84
330
1F
100
AcDbEntity
  8
0
  6
Continuous
 62
     7
100
AcDbCircle
 10
338.9777253691
 20
284.0363246754
 30
0.0
 40
2.500000000000012
  0
CIRCLE
  5
85
330
1F
100
AcDbEntity
  8
0
  6
Continuous
 62
     7
100
AcDbCircle
 10
382.3110587025
 20
284.0363246754
 30
0.0
 40
2.500000000000066
  0
CIRCLE
  5
86
330
1F
100
AcDbEntity
  8
0
  6
Continuous
 62
     7
100
AcDbCircle
 10
456.6443920358
 20
263.0463246754
 30
0.0
 40
2.499999999999995
  0
CIRCLE
  5
87
330
1F
100
AcDbEntity
  8
0
  6
Continuous
 62
     7
100
AcDbCircle
 10
456.6443920358
 20
171.0463246754
 30
0.0
 40
2.500000000000058
  0
CIRCLE
  5
88
330
1F
100
AcDbEntity
  8
0
  6
Continuous
 62
     7
100
AcDbCircle
 10
445.6443920358
 20
117.0363246754
 30
0.0
 40
2.500000000000008
  0
CIRCLE
  5
89
330
1F
100
AcDbEntity
  8
0
  6
Continuous
 62
     7
100
AcDbCircle
 10
731.1677887634
 20
406.7291931021
 30
0.0
 40
2.499999999999886
  0
CIRCLE
  5
8A
330
1F
100
AcDbEntity
  8
0
  6
Continuous
 62
     7
100
AcDbCircle
 10
539.1677887634
 20
406.7291931021
 30
0.0
 40
2.500000000000012
  0
CIRCLE
  5
8B
330
1F
100
AcDbEntity
  8
0
  6
Continuous
 62
     7
100
AcDbCircle
 10
539.1677887634
 20
314.7291931021
 30
0.0
 40
2.499999999999761
  0
CIRCLE
  5
8C
330
1F
100
AcDbEntity
  8
0
  6
Continuous
 62
     7
100
AcDbCircle
 10
731.1677887634
 20
314.7291931021
 30
0.0
 40
2.50000000000012
  0
CIRCLE
  5
8D
330
1F
100
AcDbEntity
  8
0
  6
Continuous
 62
     7
100
AcDbCircle
 10
539.1677887634
 20
176.7091931021
 30
0.0
 40
2.499999999999886
  0
CIRCLE
  5
8E
330
1F
100
AcDbEntity
  8
0
  6
Continuous
 62
     7
100
AcDbCircle
 10
731.1677887634
 20
84.7091931021
 30
0.0
 40
2.500000000000116
  0
CIRCLE
  5
8F
330
1F
100
AcDbEntity
  8
0
  6
Continuous
 62
     7
100
AcDbCircle
 10
539.1677887634
 20
84.7091931021
 30
0.0
 40
2.500000000000008
  0
CIRCLE
  5
90
330
1F
100
AcDbEntity
  8
0
  6
Continuous
 62
     7
100
AcDbCircle
 10
731.1677887634
 20
176.7091931021
 30
0.0
 40
2.50000000000012
  0
CIRCLE
  5
91
330
1F
100
AcDbEntity
  8
0
  6
Continuous
 62
     7
100
AcDbCircle
 10
200.0634015525
 20
453.7301678473
 30
0.0
 40
2.500000000000012
  0
CIRCLE
  5
92
330
1F
100
AcDbEntity
  8
0
  6
Continuous
 62
     7
100
AcDbCircle
 10
156.7300682191
 20
453.7301678473
 30
0.0
 40
2.499999999999805
  0
CIRCLE
  5
93
330
1F
100
AcDbEntity
  8
0
  6
Continuous
 62
     7
100
AcDbCircle
 10
200.0634015525
 20
149.7301678473
 30
0.0
 40
2.500000000000075
  0
CIRCLE
  5
94
330
1F
100
AcDbEntity
  8
0
  6
Continuous
 62
     7
100
AcDbCircle
 10
156.7300682191
 20
149.7301678473
 30
0.0
 40
2.499999999999922
  0
CIRCLE
  5
95
330
1F
100
AcDbEntity
  8
0
  6
Continuous
 62
     7
100
AcDbCircle
 10
305.1702730289
 20
627.8614646457
 30
0.0
 40
1.99999999999987
  0
CIRCLE
  5
96
330
1F
100
AcDbEntity
  8
0
  6
Continuous
 62
     7
100
AcDbCircle
 10
215.1702730289
 20
627.8614646457
 30
0.0
 40
1.999999999999978
  0
CIRCLE
  5
97
330
1F
100
AcDbEntity
  8
0
  6
Continuous
 62
     7
100
AcDbCircle
 10
125.1702730289
 20
627.8614646457
 30
0.0
 40
1.999999999999978
  0
CIRCLE
  5
98
330
1F
100
AcDbEntity
  8
0
  6
Continuous
 62
     7
100
AcDbCircle
 10
215.1702730289
 20
683.8614646457
 30
0.0
 40
7.499999999999954
  0
ARC
  5
99
330
1F
100
AcDbEntity
  8
0
  6
Continuous
 62
     7
100
AcDbCircle
 10
215.1702730289
 20
663.8614646457
 30
0.0
 40
7.500000000000028
100
AcDbArc
 50
0.0
 51
180.0
  0
ARC
  5
9A
330
1F
100
AcDbEntity
  8
0
  6
Continuous
 62
     7
100
AcDbCircle
 10
215.1702730289
 20
647.8614646457
 30
0.0
 40
7.500000000000028
100
AcDbArc
 50
180.0
 51
0.0
  0
ARC
  5
9B
330
1F
100
AcDbEntity
  8
0
  6
Continuous
 62
     7
100
AcDbCircle
 10
285.1702730289
 20
683.8614646457
 30
0.0
 40
7.5
100
AcDbArc
 50
270.0
 51
90.0
  0
ARC
  5
9C
330
1F
100
AcDbEntity
  8
0
  6
Continuous
 62
     7
100
AcDbCircle
 10
235.1702730289
 20
683.8614646457
 30
0.0
 40
7.500000000000114
100
AcDbArc
 50
90.0
 51
270.0
  0
CIRCLE
  5
9D
330
1F
100
AcDbEntity
  8
0
  6
Continuous
 62
     7
100
AcDbCircle
 10
305.1702730289
 20
683.8614646457
 30
0.0
 40
7.499999999999981
  0
CIRCLE
  5
9E
330
1F
100
AcDbEntity
  8
0
  6
Continuous
 62
     7
100
AcDbCircle
 10
45.1702730289
 20
683.8614646457
 30
0.0
 40
17.39999999999999
  0
ARC
  5
9F
330
1F
100
AcDbEntity
  8
0
  6
Continuous
 62
     7
100
AcDbCircle
 10
45.1702730289
 20
683.8614646457
 30
0.0
 40
27.24000000000012
100
AcDbArc
 50
90.0
 51
242.108910035
  0
ARC
  5
A0
330
1F
100
AcDbEntity
  8
0
  6
Continuous
 62
     7
100
AcDbCircle
 10
125.1702730289
 20
627.8614646457
 30
0.0
 40
17.60613278415249
100
AcDbArc
 50
240.6645812546
 51
272.6186361983
  0
ARC
  5
A1
330
1F
100
AcDbEntity
  8
0
  6
Continuous
 62
     7
100
AcDbCircle
 10
565.1702730289
 20
683.8614646457
 30
0.0
 40
27.24000000000035
100
AcDbArc
 50
297.891089965
 51
90.0
  0
CIRCLE
  5
A2
330
1F
100
AcDbEntity
  8
0
  6
Continuous
 62
     7
100
AcDbCircle
 10
565.1702730289
 20
683.8614646457
 30
0.0
 40
11.00000000000044
  0
ARC
  5
A3
330
1F
100
AcDbEntity
  8
0
  6
Continuous
 62
     7
100
AcDbCircle
 10
375.1702730289
 20
683.8614646457
 30
0.0
 40
7.500000000000114
100
AcDbArc
 50
270.0
 51
90.0
  0
ARC
  5
A4
330
1F
100
AcDbEntity
  8
0
  6
Continuous
 62
     7
100
AcDbCircle
 10
325.1702730289
 20
683.8614646457
 30
0.0
 40
7.500000000000114
100
AcDbArc
 50
90.0
 51
270.0
  0
ARC
  5
A5
330
1F
100
AcDbEntity
  8
0
  6
Continuous
 62
     7
100
AcDbCircle
 10
395.1702730289
 20
647.8614646457
 30
0.0
 40
7.499999999999943
100
AcDbArc
 50
180.0
 51
0.0
  0
ARC
  5
A6
330
1F
100
AcDbEntity
  8
0
  6
Continuous
 62
     7
100
AcDbCircle
 10
395.1702730289
 20
663.8614646457
 30
0.0
 40
7.499999999999943
100
AcDbArc
 50
0.0
 51
180.0
  0
CIRCLE
  5
A7
330
1F
100
AcDbEntity
  8
0
  6
Continuous
 62
     7
100
AcDbCircle
 10
395.1702730289
 20
683.8614646457
 30
0.0
 40
7.50000000000133
  0
CIRCLE
  5
A8
330
1F
100
AcDbEntity
  8
0
  6
Continuous
 62
     7
100
AcDbCircle
 10
395.1702730289
 20
627.8614646457
 30
0.0
 40
2.000000000000338
  0
ARC
  5
A9
330
1F
100
AcDbEntity
  8
0
  6
Continuous
 62
     7
100
AcDbCircle
 10
145.1702730289
 20
683.8614646457
 30
0.0
 40
7.5
100
AcDbArc
 50
90.0
 51
270.0
  0
ARC
  5
AA
330
1F
100
AcDbEntity
  8
0
  6
Continuous
 62
     7
100
AcDbCircle
 10
195.1702730289
 20
683.8614646457
 30
0.0
 40
7.500000000000114
100
AcDbArc
 50
270.0
 51
90.0
  0
ARC
  5
AB
330
1F
100
AcDbEntity
  8
0
  6
Continuous
 62
     7
100
AcDbCircle
 10
465.1702730289
 20
683.8614646457
 30
0.0
 40
7.500000000000114
100
AcDbArc
 50
270.0
 51
90.0
  0
ARC
  5
AC
330
1F
100
AcDbEntity
  8
0
  6
Continuous
 62
     7
100
AcDbCircle
 10
415.1702730289
 20
683.8614646457
 30
0.0
 40
7.500000000000114
100
AcDbArc
 50
90.0
 51
270.0
  0
CIRCLE
  5
AD
330
1F
100
AcDbEntity
  8
0
  6
Continuous
 62
     7
100
AcDbCircle
 10
125.1702730289
 20
683.8614646457
 30
0.0
 40
7.500000000000022
  0
CIRCLE
  5
AE
330
1F
100
AcDbEntity
  8
0
  6
Continuous
 62
     7
100
AcDbCircle
 10
485.1702730289
 20
683.8614646457
 30
0.0
 40
7.499999999999981
  0
CIRCLE
  5
AF
330
1F
100
AcDbEntity
  8
0
  6
Continuous
 62
     7
100
AcDbCircle
 10
297.1702730289
 20
658.3614646457
 30
0.0
 40
1.500000000000087
  0
CIRCLE
  5
B0
330
1F
100
AcDbEntity
  8
0
  6
Continuous
 62
     7
100
AcDbCircle
 10
305.1702730289
 20
666.3614646457
 30
0.0
 40
1.500000000000087
  0
CIRCLE
  5
B1
330
1F
100
AcDbEntity
  8
0
  6
Continuous
 62
     7
100
AcDbCircle
 10
313.1702730289
 20
658.3614646457
 30
0.0
 40
1.499999999999979
  0
CIRCLE
  5
B2
330
1F
100
AcDbEntity
  8
0
  6
Continuous
 62
     7
100
AcDbCircle
 10
305.1702730289
 20
650.3614646457
 30
0.0
 40
1.499999999999979
  0
CIRCLE
  5
B3
330
1F
100
AcDbEntity
  8
0
  6
Continuous
 62
     7
100
AcDbCircle
 10
305.1702730289
 20
658.3614646457
 30
0.0
 40
3.000000000000534
  0
CIRCLE
  5
B4
330
1F
100
AcDbEntity
  8
0
  6
Continuous
 62
     7
100
AcDbCircle
 10
485.1702730289
 20
627.8614646457
 30
0.0
 40
2.000000000000338
  0
ARC
  5
B5
330
1F
100
AcDbEntity
  8
0
  6
Continuous
 62
     7
100
AcDbCircle
 10
495.1810628859
 20
627.8837168536
 30
0.0
 40
17.61000000000001
100
AcDbArc
 50
270.0
 51
302.5422331372
  0
ARC
  5
B6
330
1F
100
AcDbEntity
  8
0
  6
Continuous
 62
     7
100
AcDbCircle
 10
465.1702730289
 20
632.8614646457
 30
0.0
 40
7.500000000000114
100
AcDbArc
 50
270.0
 51
90.0
  0
ARC
  5
B7
330
1F
100
AcDbEntity
  8
0
  6
Continuous
 62
     7
100
AcDbCircle
 10
415.1702730289
 20
632.8614646457
 30
0.0
 40
7.500000000000114
100
AcDbArc
 50
90.0
 51
270.0
  0
ARC
  5
B8
330
1F
100
AcDbEntity
  8
0
  6
Continuous
 62
     7
100
AcDbCircle
 10
325.1702730289
 20
632.8614646457
 30
0.0
 40
7.500000000000114
100
AcDbArc
 50
90.0
 51
270.0
  0
ARC
  5
B9
330
1F
100
AcDbEntity
  8
0
  6
Continuous
 62
     7
100
AcDbCircle
 10
375.1702730289
 20
632.8614646457
 30
0.0
 40
7.500000000000114
100
AcDbArc
 50
270.0
 51
90.0
  0
ARC
  5
BA
330
1F
100
AcDbEntity
  8
0
  6
Continuous
 62
     7
100
AcDbCircle
 10
285.1702730289
 20
632.8614646457
 30
0.0
 40
7.5
100
AcDbArc
 50
270.0
 51
90.0
  0
ARC
  5
BB
330
1F
100
AcDbEntity
  8
0
  6
Continuous
 62
     7
100
AcDbCircle
 10
235.1702730289
 20
632.8614646457
 30
0.0
 40
7.500000000000114
100
AcDbArc
 50
90.0
 51
270.0
  0
ARC
  5
BC
330
1F
100
AcDbEntity
  8
0
  6
Continuous
 62
     7
100
AcDbCircle
 10
195.1702730289
 20
632.8614646457
 30
0.0
 40
7.500000000000114
100
AcDbArc
 50
270.0
 51
90.0
  0
ARC
  5
BD
330
1F
100
AcDbEntity
  8
0
  6
Continuous
 62
     7
100
AcDbCircle
 10
145.1702730289
 20
632.8614646457
 30
0.0
 40
7.5
100
AcDbArc
 50
90.0
 51
270.0
  0
CIRCLE
  5
BE
330
1F
100
AcDbEntity
  8
0
  6
Continuous
 62
     7
100
AcDbCircle
 10
565.1702730289
 20
661.3614646457
 30
0.0
 40
1.499999999999979
  0
CIRCLE
  5
BF
330
1F
100
AcDbEntity
  8
0
  6
Continuous
 62
     7
100
AcDbCircle
 10
584.655844614
 20
672.6114646457
 30
0.0
 40
1.500000000000012
  0
CIRCLE
  5
C0
330
1F
100
AcDbEntity
  8
0
  6
Continuous
 62
     7
100
AcDbCircle
 10
584.655844614
 20
695.1114646457
 30
0.0
 40
1.499999999999979
  0
CIRCLE
  5
C1
330
1F
100
AcDbEntity
  8
0
  6
Continuous
 62
     7
100
AcDbCircle
 10
565.1702730289
 20
706.3614646457
 30
0.0
 40
1.499999999999979
  0
CIRCLE
  5
C2
330
1F
100
AcDbEntity
  8
0
  6
Continuous
 62
     7
100
AcDbCircle
 10
545.6847014437
 20
695.1114646457
 30
0.0
 40
1.499999999999979
  0
CIRCLE
  5
C3
330
1F
100
AcDbEntity
  8
0
  6
Continuous
 62
     7
100
AcDbCircle
 10
545.6847014437
 20
672.6114646457
 30
0.0
 40
1.500000000000087
  0
CIRCLE
  5
C4
330
1F
100
AcDbEntity
  8
0
  6
Continuous
 62
     7
100
AcDbCircle
 10
509.0047014437
 20
697.9714646457
 30
0.0
 40
2.000000000000087
  0
CIRCLE
  5
C5
330
1F
100
AcDbEntity
  8
0
  6
Continuous
 62
     7
100
AcDbCircle
 10
419.0047014437
 20
697.9714646457
 30
0.0
 40
1.999999999999978
  0
CIRCLE
  5
C6
330
1F
100
AcDbEntity
  8
0
  6
Continuous
 62
     7
100
AcDbCircle
 10
329.0047014437
 20
697.9714646457
 30
0.0
 40
1.999999999999978
  0
CIRCLE
  5
C7
330
1F
100
AcDbEntity
  8
0
  6
Continuous
 62
     7
100
AcDbCircle
 10
239.0047014437
 20
697.9714646457
 30
0.0
 40
1.999999999999978
  0
CIRCLE
  5
C8
330
1F
100
AcDbEntity
  8
0
  6
Continuous
 62
     7
100
AcDbCircle
 10
149.0047014437
 20
697.9714646457
 30
0.0
 40
1.999999999999978
  0
CIRCLE
  5
C9
330
1F
100
AcDbEntity
  8
0
  6
Continuous
 62
     7
100
AcDbCircle
 10
57.1202730289
 20
663.1634574952
 30
0.0
 40
1.50000000000006
  0
CIRCLE
  5
CA
330
1F
100
AcDbEntity
  8
0
  6
Continuous
 62
     7
100
AcDbCircle
 10
69.0702730289
 20
683.8614646457
 30
0.0
 40
1.499999999999979
  0
CIRCLE
  5
CB
330
1F
100
AcDbEntity
  8
0
  6
Continuous
 62
     7
100
AcDbCircle
 10
57.1202730289
 20
704.5594717961
 30
0.0
 40
1.500000000000019
  0
CIRCLE
  5
CC
330
1F
100
AcDbEntity
  8
0
  6
Continuous
 62
     7
100
AcDbCircle
 10
33.2202730289
 20
704.5594717961
 30
0.0
 40
1.500000000000019
  0
CIRCLE
  5
CD
330
1F
100
AcDbEntity
  8
0
  6
Continuous
 62
     7
100
AcDbCircle
 10
21.4302730289
 20
683.8614646457
 30
0.0
 40
1.500000000000016
  0
CIRCLE
  5
CE
330
1F
100
AcDbEntity
  8
0
  6
Continuous
 62
     7
100
AcDbCircle
 10
33.2202730289
 20
663.1634574952
 30
0.0
 40
1.50000000000006
  0
CIRCLE
  5
CF
330
1F
100
AcDbEntity
  8
0
  6
Continuous
 62
     7
100
AcDbCircle
 10
306.7680740402
 20
742.6969939679
 30
0.0
 40
1.999999999999849
  0
CIRCLE
  5
D0
330
1F
100
AcDbEntity
  8
0
  6
Continuous
 62
     7
100
AcDbCircle
 10
216.7680740402
 20
742.6969939679
 30
0.0
 40
2.00000000000012
  0
CIRCLE
  5
D1
330
1F
100
AcDbEntity
  8
0
  6
Continuous
 62
     7
100
AcDbCircle
 10
126.7680740402
 20
742.6969939679
 30
0.0
 40
1.999999999999889
  0
CIRCLE
  5
D2
330
1F
100
AcDbEntity
  8
0
  6
Continuous
 62
     7
100
AcDbCircle
 10
216.7680740402
 20
798.6969939679
 30
0.0
 40
7.500000000000165
  0
ARC
  5
D3
330
1F
100
AcDbEntity
  8
0
  6
Continuous
 62
     7
100
AcDbCircle
 10
216.7680740402
 20
778.6969939679
 30
0.0
 40
7.500000000000028
100
AcDbArc
 50
360.0
 51
180.0
  0
ARC
  5
D4
330
1F
100
AcDbEntity
  8
0
  6
Continuous
 62
     7
100
AcDbCircle
 10
216.7680740402
 20
762.6969939679
 30
0.0
 40
7.500000000000028
100
AcDbArc
 50
183.4872690697
 51
0.0
  0
ARC
  5
D5
330
1F
100
AcDbEntity
  8
0
  6
Continuous
 62
     7
100
AcDbCircle
 10
286.7680740402
 20
798.6969939679
 30
0.0
 40
7.500000000000114
100
AcDbArc
 50
270.0
 51
90.0
  0
ARC
  5
D6
330
1F
100
AcDbEntity
  8
0
  6
Continuous
 62
     7
100
AcDbCircle
 10
236.7680740402
 20
798.6969939679
 30
0.0
 40
7.5
100
AcDbArc
 50
90.0
 51
270.0
  0
CIRCLE
  5
D7
330
1F
100
AcDbEntity
  8
0
  6
Continuous
 62
     7
100
AcDbCircle
 10
306.7680740402
 20
798.6969939679
 30
0.0
 40
7.499999999999948
  0
CIRCLE
  5
D8
330
1F
100
AcDbEntity
  8
0
  6
Continuous
 62
     7
100
AcDbCircle
 10
46.7680740402
 20
798.6969939679
 30
0.0
 40
17.39999999999995
  0
ARC
  5
D9
330
1F
100
AcDbEntity
  8
0
  6
Continuous
 62
     7
100
AcDbCircle
 10
46.7680740402
 20
798.6969939679
 30
0.0
 40
27.24000000000012
100
AcDbArc
 50
90.0
 51
242.108910035
  0
ARC
  5
DA
330
1F
100
AcDbEntity
  8
0
  6
Continuous
 62
     7
100
AcDbCircle
 10
126.7680740402
 20
742.6969939679
 30
0.0
 40
17.60613278415197
100
AcDbArc
 50
240.6645812546
 51
272.6186361983
  0
ARC
  5
DB
330
1F
100
AcDbEntity
  8
0
  6
Continuous
 62
     7
100
AcDbCircle
 10
566.7680740402
 20
798.6969939679
 30
0.0
 40
27.24000000000037
100
AcDbArc
 50
297.891089965
 51
90.0
  0
CIRCLE
  5
DC
330
1F
100
AcDbEntity
  8
0
  6
Continuous
 62
     7
100
AcDbCircle
 10
566.7680740402
 20
798.6969939679
 30
0.0
 40
11.00000000000016
  0
ARC
  5
DD
330
1F
100
AcDbEntity
  8
0
  6
Continuous
 62
     7
100
AcDbCircle
 10
376.7680740402
 20
798.6969939679
 30
0.0
 40
7.5
100
AcDbArc
 50
270.0
 51
90.0
  0
ARC
  5
DE
330
1F
100
AcDbEntity
  8
0
  6
Continuous
 62
     7
100
AcDbCircle
 10
326.7680740402
 20
798.6969939679
 30
0.0
 40
7.5
100
AcDbArc
 50
90.0
 51
270.0
  0
ARC
  5
DF
330
1F
100
AcDbEntity
  8
0
  6
Continuous
 62
     7
100
AcDbCircle
 10
396.7680740402
 20
762.6969939679
 30
0.0
 40
7.500000000000057
100
AcDbArc
 50
180.0
 51
0.0
  0
ARC
  5
E0
330
1F
100
AcDbEntity
  8
0
  6
Continuous
 62
     7
100
AcDbCircle
 10
396.7680740402
 20
778.6969939679
 30
0.0
 40
7.500000000000057
100
AcDbArc
 50
0.0
 51
180.0
  0
CIRCLE
  5
E1
330
1F
100
AcDbEntity
  8
0
  6
Continuous
 62
     7
100
AcDbCircle
 10
396.7680740402
 20
798.6969939679
 30
0.0
 40
7.500000000001548
  0
CIRCLE
  5
E2
330
1F
100
AcDbEntity
  8
0
  6
Continuous
 62
     7
100
AcDbCircle
 10
396.7680740402
 20
742.6969939679
 30
0.0
 40
2.00000000000012
  0
ARC
  5
E3
330
1F
100
AcDbEntity
  8
0
  6
Continuous
 62
     7
100
AcDbCircle
 10
146.7680740402
 20
798.6969939679
 30
0.0
 40
7.500000000000114
100
AcDbArc
 50
90.0
 51
270.0
  0
ARC
  5
E4
330
1F
100
AcDbEntity
  8
0
  6
Continuous
 62
     7
100
AcDbCircle
 10
196.7680740402
 20
798.6969939679
 30
0.0
 40
7.5
100
AcDbArc
 50
270.0
 51
90.0
  0
ARC
  5
E5
330
1F
100
AcDbEntity
  8
0
  6
Continuous
 62
     7
100
AcDbCircle
 10
466.7680740402
 20
798.6969939679
 30
0.0
 40
7.5
100
AcDbArc
 50
270.0
 51
90.0
  0
ARC
  5
E6
330
1F
100
AcDbEntity
  8
0
  6
Continuous
 62
     7
100
AcDbCircle
 10
416.7680740402
 20
798.6969939679
 30
0.0
 40
7.5
100
AcDbArc
 50
90.0
 51
270.0
  0
CIRCLE
  5
E7
330
1F
100
AcDbEntity
  8
0
  6
Continuous
 62
     7
100
AcDbCircle
 10
126.7680740402
 20
798.6969939679
 30
0.0
 40
7.499999999999948
  0
CIRCLE
  5
E8
330
1F
100
AcDbEntity
  8
0
  6
Continuous
 62
     7
100
AcDbCircle
 10
486.7680740402
 20
798.6969939679
 30
0.0
 40
7.500000000000165
  0
CIRCLE
  5
E9
330
1F
100
AcDbEntity
  8
0
  6
Continuous
 62
     7
100
AcDbCircle
 10
298.7680740402
 20
773.1969939679
 30
0.0
 40
1.500000000000087
  0
CIRCLE
  5
EA
330
1F
100
AcDbEntity
  8
0
  6
Continuous
 62
     7
100
AcDbCircle
 10
306.7680740402
 20
781.1969939679
 30
0.0
 40
1.500000000000087
  0
CIRCLE
  5
EB
330
1F
100
AcDbEntity
  8
0
  6
Continuous
 62
     7
100
AcDbCircle
 10
314.7680740402
 20
773.1969939679
 30
0.0
 40
1.499999999999924
  0
CIRCLE
  5
EC
330
1F
100
AcDbEntity
  8
0
  6
Continuous
 62
     7
100
AcDbCircle
 10
306.7680740402
 20
765.1969939679
 30
0.0
 40
1.500000000000087
  0
CIRCLE
  5
ED
330
1F
100
AcDbEntity
  8
0
  6
Continuous
 62
     7
100
AcDbCircle
 10
306.7680740402
 20
773.1969939679
 30
0.0
 40
3.000000000000425
  0
CIRCLE
  5
EE
330
1F
100
AcDbEntity
  8
0
  6
Continuous
 62
     7
100
AcDbCircle
 10
486.7680740402
 20
742.6969939679
 30
0.0
 40
2.000000000000371
  0
ARC
  5
EF
330
1F
100
AcDbEntity
  8
0
  6
Continuous
 62
     7
100
AcDbCircle
 10
496.7788638973
 20
742.7192461759
 30
0.0
 40
17.61000000000011
100
AcDbArc
 50
270.0
 51
302.5422331372
  0
ARC
  5
F0
330
1F
100
AcDbEntity
  8
0
  6
Continuous
 62
     7
100
AcDbCircle
 10
466.7680740402
 20
747.6969939679
 30
0.0
 40
7.5
100
AcDbArc
 50
270.0
 51
90.0
  0
ARC
  5
F1
330
1F
100
AcDbEntity
  8
0
  6
Continuous
 62
     7
100
AcDbCircle
 10
416.7680740402
 20
747.6969939679
 30
0.0
 40
7.5
100
AcDbArc
 50
90.0
 51
270.0
  0
ARC
  5
F2
330
1F
100
AcDbEntity
  8
0
  6
Continuous
 62
     7
100
AcDbCircle
 10
326.7680740402
 20
747.6969939679
 30
0.0
 40
7.5
100
AcDbArc
 50
90.0
 51
270.0
  0
ARC
  5
F3
330
1F
100
AcDbEntity
  8
0
  6
Continuous
 62
     7
100
AcDbCircle
 10
376.7680740402
 20
747.6969939679
 30
0.0
 40
7.5
100
AcDbArc
 50
270.0
 51
90.0
  0
ARC
  5
F4
330
1F
100
AcDbEntity
  8
0
  6
Continuous
 62
     7
100
AcDbCircle
 10
286.7680740402
 20
747.6969939679
 30
0.0
 40
7.500000000000114
100
AcDbArc
 50
270.0
 51
90.0
  0
ARC
  5
F5
330
1F
100
AcDbEntity
  8
0
  6
Continuous
 62
     7
100
AcDbCircle
 10
236.7680740402
 20
747.6969939679
 30
0.0
 40
7.5
100
AcDbArc
 50
90.0
 51
270.0
  0
ARC
  5
F6
330
1F
100
AcDbEntity
  8
0
  6
Continuous
 62
     7
100
AcDbCircle
 10
196.7680740402
 20
747.6969939679
 30
0.0
 40
7.5
100
AcDbArc
 50
270.0
 51
90.0
  0
ARC
  5
F7
330
1F
100
AcDbEntity
  8
0
  6
Continuous
 62
     7
100
AcDbCircle
 10
146.7680740402
 20
747.6969939679
 30
0.0
 40
7.500000000000114
100
AcDbArc
 50
90.0
 51
270.0
  0
CIRCLE
  5
F8
330
1F
100
AcDbEntity
  8
0
  6
Continuous
 62
     7
100
AcDbCircle
 10
566.7680740403
 20
776.1969939679
 30
0.0
 40
1.500000000000087
  0
CIRCLE
  5
F9
330
1F
100
AcDbEntity
  8
0
  6
Continuous
 62
     7
100
AcDbCircle
 10
586.2536456254
 20
787.4469939679
 30
0.0
 40
1.500000000000087
  0
CIRCLE
  5
FA
330
1F
100
AcDbEntity
  8
0
  6
Continuous
 62
     7
100
AcDbCircle
 10
586.2536456254
 20
809.9469939679
 30
0.0
 40
1.500000000000087
  0
CIRCLE
  5
FB
330
1F
100
AcDbEntity
  8
0
  6
Continuous
 62
     7
100
AcDbCircle
 10
566.7680740402
 20
821.1969939679
 30
0.0
 40
1.500000000000087
  0
CIRCLE
  5
FC
330
1F
100
AcDbEntity
  8
0
  6
Continuous
 62
     7
100
AcDbCircle
 10
547.2825024551
 20
809.9469939679
 30
0.0
 40
1.500000000000087
  0
CIRCLE
  5
FD
330
1F
100
AcDbEntity
  8
0
  6
Continuous
 62
     7
100
AcDbCircle
 10
547.2825024551
 20
787.4469939679
 30
0.0
 40
1.49999999999987
  0
CIRCLE
  5
FE
330
1F
100
AcDbEntity
  8
0
  6
Continuous
 62
     7
100
AcDbCircle
 10
510.6025024551
 20
812.8069939679
 30
0.0
 40
1.999999999999957
  0
CIRCLE
  5
FF
330
1F
100
AcDbEntity
  8
0
  6
Continuous
 62
     7
100
AcDbCircle
 10
420.6025024551
 20
812.8069939679
 30
0.0
 40
2.00000000000012
  0
CIRCLE
  5
100
330
1F
100
AcDbEntity
  8
0
  6
Continuous
 62
     7
100
AcDbCircle
 10
330.6025024551
 20
812.8069939679
 30
0.0
 40
1.999999999999849
  0
CIRCLE
  5
101
330
1F
100
AcDbEntity
  8
0
  6
Continuous
 62
     7
100
AcDbCircle
 10
240.6025024551
 20
812.8069939679
 30
0.0
 40
1.999999999999849
  0
CIRCLE
  5
102
330
1F
100
AcDbEntity
  8
0
  6
Continuous
 62
     7
100
AcDbCircle
 10
150.6025024551
 20
812.8069939679
 30
0.0
 40
2.00000000000012
  0
CIRCLE
  5
103
330
1F
100
AcDbEntity
  8
0
  6
Continuous
 62
     7
100
AcDbCircle
 10
58.7180740402
 20
777.9989868175
 30
0.0
 40
1.500000000000033
  0
CIRCLE
  5
104
330
1F
100
AcDbEntity
  8
0
  6
Continuous
 62
     7
100
AcDbCircle
 10
70.6680740402
 20
798.6969939679
 30
0.0
 40
1.499999999999965
  0
CIRCLE
  5
105
330
1F
100
AcDbEntity
  8
0
  6
Continuous
 62
     7
100
AcDbCircle
 10
58.7180740402
 20
819.3950011184
 30
0.0
 40
1.500000000000033
  0
CIRCLE
  5
106
330
1F
100
AcDbEntity
  8
0
  6
Continuous
 62
     7
100
AcDbCircle
 10
34.8180740402
 20
819.3950011184
 30
0.0
 40
1.499999999999986
  0
CIRCLE
  5
107
330
1F
100
AcDbEntity
  8
0
  6
Continuous
 62
     7
100
AcDbCircle
 10
23.0280740402
 20
798.6969939679
 30
0.0
 40
1.499999999999989
  0
CIRCLE
  5
108
330
1F
100
AcDbEntity
  8
0
  6
Continuous
 62
     7
100
AcDbCircle
 10
34.8180740402
 20
777.9989868175
 30
0.0
 40
1.499999999999986
  0
CIRCLE
  5
109
330
1F
100
AcDbEntity
  8
0
  6
Continuous
 62
     7
100
AcDbCircle
 10
21.5498355743
 20
510.5352571461
 30
0.0
 40
2.499999999999974
  0
CIRCLE
  5
10A
330
1F
100
AcDbEntity
  8
0
  6
Continuous
 62
     7
100
AcDbCircle
 10
79.5498355743
 20
510.5352571461
 30
0.0
 40
2.499999999999889
  0
CIRCLE
  5
10B
330
1F
100
AcDbEntity
  8
0
  6
Continuous
 62
     7
100
AcDbCircle
 10
21.5498355743
 20
418.5352571461
 30
0.0
 40
2.500000000000202
  0
CIRCLE
  5
10C
330
1F
100
AcDbEntity
  8
0
  6
Continuous
 62
     7
100
AcDbCircle
 10
79.5498355743
 20
418.5352571461
 30
0.0
 40
2.499999999999679
  0
CIRCLE
  5
10D
330
1F
100
AcDbEntity
  8
0
  6
Continuous
 62
     7
100
AcDbCircle
 10
57.5498355743
 20
349.5352571461
 30
0.0
 40
5.999999999999992
  0
CIRCLE
  5
10E
330
1F
100
AcDbEntity
  8
0
  6
Continuous
 62
     7
100
AcDbCircle
 10
64.4130062074
 20
341.0235412557
 30
0.0
 40
1.499999999999992
  0
CIRCLE
  5
10F
330
1F
100
AcDbEntity
  8
0
  6
Continuous
 62
     7
100
AcDbCircle
 10
50.5498355743
 20
333.0196359589
 30
0.0
 40
1.500000000000019
  0
CIRCLE
  5
110
330
1F
100
AcDbEntity
  8
0
  6
Continuous
 62
     7
100
AcDbCircle
 10
64.4130062074
 20
357.0313518493
 30
0.0
 40
1.499999999999979
  0
CIRCLE
  5
111
330
1F
100
AcDbEntity
  8
0
  6
Continuous
 62
     7
100
AcDbCircle
 10
50.5498355743
 20
365.0352571461
 30
0.0
 40
1.499999999999986
  0
CIRCLE
  5
112
330
1F
100
AcDbEntity
  8
0
  6
Continuous
 62
     7
100
AcDbCircle
 10
36.6866649413
 20
357.0313518493
 30
0.0
 40
1.50000000000005
  0
CIRCLE
  5
113
330
1F
100
AcDbEntity
  8
0
  6
Continuous
 62
     7
100
AcDbCircle
 10
36.6866649413
 20
341.0235412557
 30
0.0
 40
1.499999999999986
  0
CIRCLE
  5
114
330
1F
100
AcDbEntity
  8
0
  6
Continuous
 62
     7
100
AcDbCircle
 10
50.5498355743
 20
312.6352571461
 30
0.0
 40
4.999999999999959
  0
CIRCLE
  5
115
330
1F
100
AcDbEntity
  8
0
  6
Continuous
 62
     7
100
AcDbCircle
 10
79.5498355743
 20
280.5352571461
 30
0.0
 40
2.499999999999998
  0
CIRCLE
  5
116
330
1F
100
AcDbEntity
  8
0
  6
Continuous
 62
     7
100
AcDbCircle
 10
66.0914090714
 20
265.0251785098
 30
0.0
 40
2.000000000000009
  0
CIRCLE
  5
117
330
1F
100
AcDbEntity
  8
0
  6
Continuous
 62
     7
100
AcDbCircle
 10
66.0914090714
 20
297.0251785098
 30
0.0
 40
1.999999999999995
  0
CIRCLE
  5
118
330
1F
100
AcDbEntity
  8
0
  6
Continuous
 62
     7
100
AcDbCircle
 10
79.5498355743
 20
188.5352571461
 30
0.0
 40
2.499999999999998
  0
CIRCLE
  5
119
330
1F
100
AcDbEntity
  8
0
  6
Continuous
 62
     7
100
AcDbCircle
 10
66.0914090714
 20
173.0251785098
 30
0.0
 40
2.0
  0
CIRCLE
  5
11A
330
1F
100
AcDbEntity
  8
0
  6
Continuous
 62
     7
100
AcDbCircle
 10
66.0914090714
 20
205.0251785098
 30
0.0
 40
2.0
  0
CIRCLE
  5
11B
330
1F
100
AcDbEntity
  8
0
  6
Continuous
 62
     7
100
AcDbCircle
 10
34.0914090714
 20
173.0251785098
 30
0.0
 40
1.999999999999987
  0
CIRCLE
  5
11C
330
1F
100
AcDbEntity
  8
0
  6
Continuous
 62
     7
100
AcDbCircle
 10
21.5498355743
 20
188.5352571461
 30
0.0
 40
2.500000000000025
  0
CIRCLE
  5
11D
330
1F
100
AcDbEntity
  8
0
  6
Continuous
 62
     7
100
AcDbCircle
 10
34.0914090714
 20
205.0251785098
 30
0.0
 40
1.999999999999987
  0
CIRCLE
  5
11E
330
1F
100
AcDbEntity
  8
0
  6
Continuous
 62
     7
100
AcDbCircle
 10
34.0914090714
 20
265.0251785098
 30
0.0
 40
1.999999999999995
  0
CIRCLE
  5
11F
330
1F
100
AcDbEntity
  8
0
  6
Continuous
 62
     7
100
AcDbCircle
 10
21.5498355743
 20
280.5352571461
 30
0.0
 40
2.500000000000025
  0
CIRCLE
  5
120
330
1F
100
AcDbEntity
  8
0
  6
Continuous
 62
     7
100
AcDbCircle
 10
34.0914090714
 20
297.0251785098
 30
0.0
 40
1.999999999999849
  0
ARC
  5
121
330
1F
100
AcDbEntity
  8
0
  6
Continuous
 62
     7
100
AcDbCircle
 10
50.0914090714
 20
281.0251785098
 30
0.0
 40
19.59000000000017
100
AcDbArc
 50
144.7600956036
 51
215.2399043964
  0
ARC
  5
122
330
1F
100
AcDbEntity
  8
0
  6
Continuous
 62
     7
100
AcDbCircle
 10
50.0914090714
 20
189.0251785098
 30
0.0
 40
19.58999999999997
100
AcDbArc
 50
144.7600956036
 51
215.2399043964
  0
CIRCLE
  5
123
330
1F
100
AcDbEntity
  8
0
  6
Continuous
 62
     7
100
AcDbCircle
 10
611.2282501449
 20
575.2605189714
 30
0.0
 40
2.499999999999652
  0
CIRCLE
  5
124
330
1F
100
AcDbEntity
  8
0
  6
Continuous
 62
     7
100
AcDbCircle
 10
611.2282501449
 20
517.2605189714
 30
0.0
 40
2.499999999999511
  0
CIRCLE
  5
125
330
1F
100
AcDbEntity
  8
0
  6
Continuous
 62
     7
100
AcDbCircle
 10
519.2282501449
 20
575.2605189714
 30
0.0
 40
2.50000000000012
  0
CIRCLE
  5
126
330
1F
100
AcDbEntity
  8
0
  6
Continuous
 62
     7
100
AcDbCircle
 10
519.2282501449
 20
517.2605189714
 30
0.0
 40
2.499999999999511
  0
CIRCLE
  5
127
330
1F
100
AcDbEntity
  8
0
  6
Continuous
 62
     7
100
AcDbCircle
 10
450.2282501449
 20
539.2605189714
 30
0.0
 40
5.999999999999915
  0
CIRCLE
  5
128
330
1F
100
AcDbEntity
  8
0
  6
Continuous
 62
     7
100
AcDbCircle
 10
441.7165342545
 20
532.3973483383
 30
0.0
 40
1.499999999999979
  0
CIRCLE
  5
129
330
1F
100
AcDbEntity
  8
0
  6
Continuous
 62
     7
100
AcDbCircle
 10
433.7126289577
 20
546.2605189714
 30
0.0
 40
1.500000000000087
  0
CIRCLE
  5
12A
330
1F
100
AcDbEntity
  8
0
  6
Continuous
 62
     7
100
AcDbCircle
 10
457.7243448481
 20
532.3973483383
 30
0.0
 40
1.499999999999924
  0
CIRCLE
  5
12B
330
1F
100
AcDbEntity
  8
0
  6
Continuous
 62
     7
100
AcDbCircle
 10
465.7282501449
 20
546.2605189714
 30
0.0
 40
1.500000000000087
  0
CIRCLE
  5
12C
330
1F
100
AcDbEntity
  8
0
  6
Continuous
 62
     7
100
AcDbCircle
 10
457.7243448481
 20
560.1236896044
 30
0.0
 40
1.500000000000033
  0
CIRCLE
  5
12D
330
1F
100
AcDbEntity
  8
0
  6
Continuous
 62
     7
100
AcDbCircle
 10
441.7165342545
 20
560.1236896044
 30
0.0
 40
1.500000000000087
  0
CIRCLE
  5
12E
330
1F
100
AcDbEntity
  8
0
  6
Continuous
 62
     7
100
AcDbCircle
 10
413.3282501449
 20
546.2605189714
 30
0.0
 40
4.999999999999936
  0
CIRCLE
  5
12F
330
1F
100
AcDbEntity
  8
0
  6
Continuous
 62
     7
100
AcDbCircle
 10
381.2282501449
 20
517.2605189714
 30
0.0
 40
2.499999999999957
  0
CIRCLE
  5
130
330
1F
100
AcDbEntity
  8
0
  6
Continuous
 62
     7
100
AcDbCircle
 10
365.7181715086
 20
530.7189454743
 30
0.0
 40
1.999999999999978
  0
CIRCLE
  5
131
330
1F
100
AcDbEntity
  8
0
  6
Continuous
 62
     7
100
AcDbCircle
 10
397.7181715086
 20
530.7189454743
 30
0.0
 40
1.999999999999978
  0
CIRCLE
  5
132
330
1F
100
AcDbEntity
  8
0
  6
Continuous
 62
     7
100
AcDbCircle
 10
289.2282501449
 20
517.2605189714
 30
0.0
 40
2.500000000000012
  0
CIRCLE
  5
133
330
1F
100
AcDbEntity
  8
0
  6
Continuous
 62
     7
100
AcDbCircle
 10
273.7181715086
 20
530.7189454743
 30
0.0
 40
1.999999999999978
  0
CIRCLE
  5
134
330
1F
100
AcDbEntity
  8
0
  6
Continuous
 62
     7
100
AcDbCircle
 10
305.7181715086
 20
530.7189454743
 30
0.0
 40
1.999999999999978
  0
CIRCLE
  5
135
330
1F
100
AcDbEntity
  8
0
  6
Continuous
 62
     7
100
AcDbCircle
 10
273.7181715086
 20
562.7189454743
 30
0.0
 40
2.000000000000033
  0
CIRCLE
  5
136
330
1F
100
AcDbEntity
  8
0
  6
Continuous
 62
     7
100
AcDbCircle
 10
289.2282501449
 20
575.2605189714
 30
0.0
 40
2.499999999999903
  0
CIRCLE
  5
137
330
1F
100
AcDbEntity
  8
0
  6
Continuous
 62
     7
100
AcDbCircle
 10
305.7181715086
 20
562.7189454743
 30
0.0
 40
2.000000000000087
  0
CIRCLE
  5
138
330
1F
100
AcDbEntity
  8
0
  6
Continuous
 62
     7
100
AcDbCircle
 10
365.7181715086
 20
562.7189454743
 30
0.0
 40
1.999999999999978
  0
CIRCLE
  5
139
330
1F
100
AcDbEntity
  8
0
  6
Continuous
 62
     7
100
AcDbCircle
 10
381.2282501449
 20
575.2605189714
 30
0.0
 40
2.499999999999957
  0
CIRCLE
  5
13A
330
1F
100
AcDbEntity
  8
0
  6
Continuous
 62
     7
100
AcDbCircle
 10
397.7181715086
 20
562.7189454743
 30
0.0
 40
1.999999999999978
  0
ARC
  5
13B
330
1F
100
AcDbEntity
  8
0
  6
Continuous
 62
     7
100
AcDbCircle
 10
381.7181715086
 20
546.7189454743
 30
0.0
 40
19.59000000000013
100
AcDbArc
 50
54.7600956036
 51
125.2399043964
  0
ARC
  5
13C
330
1F
100
AcDbEntity
  8
0
  6
Continuous
 62
     7
100
AcDbCircle
 10
289.7181715086
 20
546.7189454743
 30
0.0
 40
19.58999999999988
100
AcDbArc
 50
54.7600956036
 51
125.2399043964
  0
LINE
  5
13D
330
1F
100
AcDbEntity
  8
0
  6
Continuous
 62
     7
100
AcDbLine
 10
5.8757443143
 20
89.7094341142
 30
0.0
 11
215.8757443143
 21
89.7094341142
 31
0.0
  0
LINE
  5
13E
330
1F
100
AcDbEntity
  8
0
  6
Continuous
 62
     7
100
AcDbLine
 10
5.8757443143
 20
89.7094341142
 30
0.0
 11
5.8757443143
 21
5.7094341142
 31
0.0
  0
LINE
  5
13F
330
1F
100
AcDbEntity
  8
0
  6
Continuous
 62
     7
100
AcDbLine
 10
5.8757443143
 20
5.7094341142
 30
0.0
 11
215.8757443143
 21
5.7094341142
 31
0.0
  0
LINE
  5
140
330
1F
100
AcDbEntity
  8
0
  6
Continuous
 62
     7
100
AcDbLine
 10
215.8757443143
 20
89.7094341142
 30
0.0
 11
215.8757443143
 21
5.7094341142
 31
0.0
  0
LINE
  5
141
330
1F
100
AcDbEntity
  8
0
  6
Continuous
 62
     7
100
AcDbLine
 10
348.3351241386
 20
248.5273620985
 30
0.0
 11
348.3351241386
 21
82.0273620985
 31
0.0
  0
LINE
  5
142
330
1F
100
AcDbEntity
  8
0
  6
Continuous
 62
     7
100
AcDbLine
 10
518.3351241386
 20
8.0273620985
 30
0.0
 11
308.3351241386
 21
8.0273620985
 31
0.0
  0
LINE
  5
143
330
1F
100
AcDbEntity
  8
0
  6
Continuous
 62
     7
100
AcDbLine
 10
518.3351241386
 20
8.0273620985
 30
0.0
 11
518.3351241386
 21
248.5273620985
 31
0.0
  0
LINE
  5
144
330
1F
100
AcDbEntity
  8
0
  6
Continuous
 62
     7
100
AcDbLine
 10
518.3351241386
 20
248.5273620985
 30
0.0
 11
478.3351241386
 21
248.5273620985
 31
0.0
  0
LINE
  5
145
330
1F
100
AcDbEntity
  8
0
  6
Continuous
 62
     7
100
AcDbLine
 10
308.3351241386
 20
8.0273620985
 30
0.0
 11
308.3351241386
 21
248.5273620985
 31
0.0
  0
LINE
  5
146
330
1F
100
AcDbEntity
  8
0
  6
Continuous
 62
     7
100
AcDbLine
 10
348.3351241386
 20
82.0273620985
 30
0.0
 11
478.3351241386
 21
82.0273620985
 31
0.0
  0
LINE
  5
147
330
1F
100
AcDbEntity
  8
0
  6
Continuous
 62
     7
100
AcDbLine
 10
478.3351241386
 20
82.0273620985
 30
0.0
 11
478.3351241386
 21
248.5273620985
 31
0.0
  0
LINE
  5
148
330
1F
100
AcDbEntity
  8
0
  6
Continuous
 62
     7
100
AcDbLine
 10
348.3351241386
 20
248.5273620985
 30
0.0
 11
308.3351241386
 21
248.5273620985
 31
0.0
  0
LINE
  5
149
330
1F
100
AcDbEntity
  8
0
  6
Continuous
 62
     7
100
AcDbLine
 10
425.6443920358
 20
102.0363246754
 30
0.0
 11
425.6443920358
 21
269.0363246754
 31
0.0
  0
LINE
  5
14A
330
1F
100
AcDbEntity
  8
0
  6
Continuous
 62
     7
100
AcDbLine
 10
255.6443920358
 20
102.0363246754
 30
0.0
 11
295.6443920358
 21
102.0363246754
 31
0.0
  0
LINE
  5
14B
330
1F
100
AcDbEntity
  8
0
  6
Continuous
 62
     7
100
AcDbLine
 10
255.6443920358
 20
102.0363246754
 30
0.0
 11
255.6443920358
 21
343.0363246754
 31
0.0
  0
LINE
  5
14C
330
1F
100
AcDbEntity
  8
0
  6
Continuous
 62
     7
100
AcDbLine
 10
255.6443920358
 20
343.0363246754
 30
0.0
 11
465.6443920358
 21
343.0363246754
 31
0.0
  0
LINE
  5
14D
330
1F
100
AcDbEntity
  8
0
  6
Continuous
 62
     7
100
AcDbLine
 10
465.6443920358
 20
102.0363246754
 30
0.0
 11
465.6443920358
 21
343.0363246754
 31
0.0
  0
LINE
  5
14E
330
1F
100
AcDbEntity
  8
0
  6
Continuous
 62
     7
100
AcDbLine
 10
425.6443920358
 20
269.0363246754
 30
0.0
 11
295.6443920358
 21
269.0363246754
 31
0.0
  0
LINE
  5
14F
330
1F
100
AcDbEntity
  8
0
  6
Continuous
 62
     7
100
AcDbLine
 10
295.6443920358
 20
269.0363246754
 30
0.0
 11
295.6443920358
 21
102.0363246754
 31
0.0
  0
LINE
  5
150
330
1F
100
AcDbEntity
  8
0
  6
Continuous
 62
     7
100
AcDbLine
 10
425.6443920358
 20
102.0363246754
 30
0.0
 11
465.6443920358
 21
102.0363246754
 31
0.0
  0
LINE
  5
151
330
1F
100
AcDbEntity
  8
0
  6
Continuous
 62
     7
100
AcDbLine
 10
302.2258003298
 20
472.6263599564
 30
0.0
 11
512.2258003298
 21
472.6263599564
 31
0.0
  0
LINE
  5
152
330
1F
100
AcDbEntity
  8
0
  6
Continuous
 62
     7
100
AcDbLine
 10
302.2258003298
 20
472.6263599564
 30
0.0
 11
302.2258003298
 21
388.6263599564
 31
0.0
  0
LINE
  5
153
330
1F
100
AcDbEntity
  8
0
  6
Continuous
 62
     7
100
AcDbLine
 10
302.2258003298
 20
388.6263599564
 30
0.0
 11
512.2258003298
 21
388.6263599564
 31
0.0
  0
LINE
  5
154
330
1F
100
AcDbEntity
  8
0
  6
Continuous
 62
     7
100
AcDbLine
 10
512.2258003298
 20
472.6263599564
 30
0.0
 11
512.2258003298
 21
388.6263599564
 31
0.0
  0
LINE
  5
155
330
1F
100
AcDbEntity
  8
0
  6
Continuous
 62
     7
100
AcDbLine
 10
530.1677887634
 20
4.7191931021
 30
0.0
 11
740.1677887634
 21
4.7191931021
 31
0.0
  0
LINE
  5
156
330
1F
100
AcDbEntity
  8
0
  6
Continuous
 62
     7
100
AcDbLine
 10
530.1677887634
 20
4.7191931021
 30
0.0
 11
530.1677887634
 21
486.7191931021
 31
0.0
  0
LINE
  5
157
330
1F
100
AcDbEntity
  8
0
  6
Continuous
 62
     7
100
AcDbLine
 10
530.1677887634
 20
486.7191931021
 30
0.0
 11
740.1677887634
 21
486.7191931021
 31
0.0
  0
LINE
  5
158
330
1F
100
AcDbEntity
  8
0
  6
Continuous
 62
     7
100
AcDbLine
 10
740.1677887634
 20
4.7191931021
 30
0.0
 11
740.1677887634
 21
486.7191931021
 31
0.0
  0
LINE
  5
159
330
1F
100
AcDbEntity
  8
0
  6
Continuous
 62
     7
100
AcDbLine
 10
243.3967348858
 20
468.7301678473
 30
0.0
 11
113.3967348858
 21
468.7301678473
 31
0.0
  0
LINE
  5
15A
330
1F
100
AcDbEntity
  8
0
  6
Continuous
 62
     7
100
AcDbLine
 10
243.3967348858
 20
468.7301678473
 30
0.0
 11
243.3967348858
 21
134.7301678473
 31
0.0
  0
LINE
  5
15B
330
1F
100
AcDbEntity
  8
0
  6
Continuous
 62
     7
100
AcDbLine
 10
243.3967348858
 20
134.7301678473
 30
0.0
 11
113.3967348858
 21
134.7301678473
 31
0.0
  0
LINE
  5
15C
330
1F
100
AcDbEntity
  8
0
  6
Continuous
 62
     7
100
AcDbLine
 10
113.3967348858
 20
468.7301678473
 30
0.0
 11
113.3967348858
 21
134.7301678473
 31
0.0
  0
LINE
  5
15D
330
1F
100
AcDbEntity
  8
0
  6
CENTERX2
 62
     7
100
AcDbLine
 10
407.6702730289
 20
674.9359327308
 30
0.0
 11
395.1702730289
 21
672.914656135
 31
0.0
  0
LINE
  5
15E
330
1F
100
AcDbEntity
  8
0
  6
CENTERX2
 62
     7
100
AcDbLine
 10
395.1702730289
 20
627.8614646457
 30
0.0
 11
485.1702730289
 21
627.8614646457
 31
0.0
  0
LINE
  5
15F
330
1F
100
AcDbEntity
  8
0
  6
CENTERX2
 62
     7
100
AcDbLine
 10
202.6702730289
 20
641.7869965606
 30
0.0
 11
222.0711606105
 21
644.924161361
 31
0.0
  0
LINE
  5
160
330
1F
100
AcDbEntity
  8
0
  6
CENTERX2
 62
     7
100
AcDbLine
 10
89.2336288232
 20
627.8614646457
 30
0.0
 11
45.1702730289
 21
627.8614646457
 31
0.0
  0
LINE
  5
161
330
1F
100
AcDbEntity
  8
0
  6
CENTERX2
 62
     7
100
AcDbLine
 10
215.1702730289
 20
627.8614646457
 30
0.0
 11
213.1702730289
 21
627.8614646457
 31
0.0
  0
LINE
  5
162
330
1F
100
AcDbEntity
  8
0
  6
CENTERX2
 62
     7
100
AcDbLine
 10
116.5518519763
 20
627.8614646457
 30
0.0
 11
123.1702730289
 21
627.8614646457
 31
0.0
  0
LINE
  5
163
330
1F
100
AcDbEntity
  8
0
  6
CENTERX2
 62
     7
100
AcDbLine
 10
45.1702730289
 20
627.8614646457
 30
0.0
 11
45.1702730289
 21
653.041350467
 31
0.0
  0
LINE
  5
164
330
1F
100
AcDbEntity
  8
0
  6
Continuous
 62
     7
100
AcDbLine
 10
125.9746605078
 20
610.2737168536
 30
0.0
 11
484.36588555
 21
610.2737168536
 31
0.0
  0
LINE
  5
165
330
1F
100
AcDbEntity
  8
0
  6
CENTERX2
 62
     7
100
AcDbLine
 10
45.1702730289
 20
683.8614646457
 30
0.0
 11
125.1702730289
 21
627.8614646457
 31
0.0
  0
LINE
  5
166
330
1F
100
AcDbEntity
  8
0
  6
Continuous
 62
     7
100
AcDbLine
 10
484.36588555
 20
610.2737168536
 30
0.0
 11
495.1810628859
 21
610.2737168536
 31
0.0
  0
LINE
  5
167
330
1F
100
AcDbEntity
  8
0
  6
CENTERX2
 62
     7
100
AcDbLine
 10
305.1702730289
 20
627.8614646457
 30
0.0
 11
292.6702730289
 21
627.8614646457
 31
0.0
  0
LINE
  5
168
330
1F
100
AcDbEntity
  8
0
  6
CENTERX2
 62
     7
100
AcDbLine
 10
125.1702730289
 20
627.8614646457
 30
0.0
 11
137.6702730289
 21
627.8614646457
 31
0.0
  0
LINE
  5
169
330
1F
100
AcDbEntity
  8
0
  6
CENTERX2
 62
     7
100
AcDbLine
 10
215.1702730289
 20
627.8614646457
 30
0.0
 11
213.1702730289
 21
627.8614646457
 31
0.0
  0
LINE
  5
16A
330
1F
100
AcDbEntity
  8
0
  6
CENTERX2
 62
     7
100
AcDbLine
 10
215.1702730289
 20
627.8614646457
 30
0.0
 11
215.1702730289
 21
683.8614646457
 31
0.0
  0
LINE
  5
16B
330
1F
100
AcDbEntity
  8
0
  6
CENTERX2
 62
     7
100
AcDbLine
 10
123.1703199793
 20
627.8477606537
 30
0.0
 11
116.5518519763
 21
627.8614646457
 31
0.0
  0
LINE
  5
16C
330
1F
100
AcDbEntity
  8
0
  6
CENTERX2
 62
     7
100
AcDbLine
 10
125.1702730289
 20
627.8614646457
 30
0.0
 11
108.7856346185
 21
639.3307115329
 31
0.0
  0
LINE
  5
16D
330
1F
100
AcDbEntity
  8
0
  6
CENTERX2
 62
     7
100
AcDbLine
 10
108.7856346185
 20
639.3307115329
 30
0.0
 11
83.5013689775
 21
657.0296974816
 31
0.0
  0
LINE
  5
16E
330
1F
100
AcDbEntity
  8
0
  6
CENTERX2
 62
     7
100
AcDbLine
 10
45.1702730289
 20
683.8614646457
 30
0.0
 11
61.5549114393
 21
672.3922177584
 31
0.0
  0
LINE
  5
16F
330
1F
100
AcDbEntity
  8
0
  6
Continuous
 62
     7
100
AcDbLine
 10
32.4276087421
 20
659.7857069863
 30
0.0
 11
116.5446509525
 21
612.5130264382
 31
0.0
  0
LINE
  5
170
330
1F
100
AcDbEntity
  8
0
  6
CENTERX2
 62
     7
100
AcDbLine
 10
215.1702730289
 20
683.8614646457
 30
0.0
 11
215.1702730289
 21
663.8614646457
 31
0.0
  0
LINE
  5
171
330
1F
100
AcDbEntity
  8
0
  6
CENTERX2
 62
     7
100
AcDbLine
 10
215.1702730289
 20
627.8614646457
 30
0.0
 11
215.1702730289
 21
647.8614646457
 31
0.0
  0
LINE
  5
172
330
1F
100
AcDbEntity
  8
0
  6
Continuous
 62
     7
100
AcDbLine
 10
222.6702730289
 20
663.8614646457
 30
0.0
 11
222.6702730289
 21
647.8614646457
 31
0.0
  0
LINE
  5
173
330
1F
100
AcDbEntity
  8
0
  6
Continuous
 62
     7
100
AcDbLine
 10
207.6702730289
 20
663.8614646457
 30
0.0
 11
207.6702730289
 21
647.8614646457
 31
0.0
  0
LINE
  5
174
330
1F
100
AcDbEntity
  8
0
  6
CENTERX2
 62
     7
100
AcDbLine
 10
215.1702730289
 20
696.3614646457
 30
0.0
 11
215.1702730289
 21
640.3614646457
 31
0.0
  0
LINE
  5
175
330
1F
100
AcDbEntity
  8
0
  6
Continuous
 62
     7
100
AcDbLine
 10
285.1702730289
 20
676.3614646457
 30
0.0
 11
235.1702730289
 21
676.3614646457
 31
0.0
  0
LINE
  5
176
330
1F
100
AcDbEntity
  8
0
  6
Continuous
 62
     7
100
AcDbLine
 10
285.1702730289
 20
691.3614646457
 30
0.0
 11
235.1702730289
 21
691.3614646457
 31
0.0
  0
LINE
  5
177
330
1F
100
AcDbEntity
  8
0
  6
CENTERX2
 62
     7
100
AcDbLine
 10
592.4102730289
 20
683.8614646457
 30
0.0
 11
589.2441382132
 21
683.8614646457
 31
0.0
  0
LINE
  5
178
330
1F
100
AcDbEntity
  8
0
  6
CENTERX2
 62
     7
100
AcDbLine
 10
565.1702730289
 20
711.1014646457
 30
0.0
 11
565.1702730289
 21
683.8614646457
 31
0.0
  0
LINE
  5
179
330
1F
100
AcDbEntity
  8
0
  6
CENTERX2
 62
     7
100
AcDbLine
 10
395.1702730289
 20
696.3614646457
 30
0.0
 11
395.1702730289
 21
640.3614646457
 31
0.0
  0
LINE
  5
17A
330
1F
100
AcDbEntity
  8
0
  6
CENTERX2
 62
     7
100
AcDbLine
 10
395.1702730289
 20
627.8614646457
 30
0.0
 11
395.1702730289
 21
647.8614646457
 31
0.0
  0
LINE
  5
17B
330
1F
100
AcDbEntity
  8
0
  6
CENTERX2
 62
     7
100
AcDbLine
 10
395.1702730289
 20
683.8614646457
 30
0.0
 11
395.1702730289
 21
663.8614646457
 31
0.0
  0
LINE
  5
17C
330
1F
100
AcDbEntity
  8
0
  6
CENTERX2
 62
     7
100
AcDbLine
 10
565.1702730289
 20
683.8614646457
 30
0.0
 11
565.1702730289
 21
690.8614646457
 31
0.0
  0
LINE
  5
17D
330
1F
100
AcDbEntity
  8
0
  6
Continuous
 62
     7
100
AcDbLine
 10
465.1702730289
 20
625.3614646457
 30
0.0
 11
415.1702730289
 21
625.3614646457
 31
0.0
  0
LINE
  5
17E
330
1F
100
AcDbEntity
  8
0
  6
CENTERX2
 62
     7
100
AcDbLine
 10
45.1702730289
 20
655.8539218115
 30
0.0
 11
45.1702730289
 21
683.8614646457
 31
0.0
  0
LINE
  5
17F
330
1F
100
AcDbEntity
  8
0
  6
Continuous
 62
     7
100
AcDbLine
 10
465.1702730289
 20
640.3614646457
 30
0.0
 11
415.1702730289
 21
640.3614646457
 31
0.0
  0
LINE
  5
180
330
1F
100
AcDbEntity
  8
0
  6
Continuous
 62
     7
100
AcDbLine
 10
325.1702730289
 20
640.3614646457
 30
0.0
 11
375.1702730289
 21
640.3614646457
 31
0.0
  0
LINE
  5
181
330
1F
100
AcDbEntity
  8
0
  6
Continuous
 62
     7
100
AcDbLine
 10
325.1702730289
 20
691.3614646457
 30
0.0
 11
375.1702730289
 21
691.3614646457
 31
0.0
  0
LINE
  5
182
330
1F
100
AcDbEntity
  8
0
  6
CENTERX2
 62
     7
100
AcDbLine
 10
565.1702730289
 20
683.8614646457
 30
0.0
 11
565.1702730289
 21
676.8614646457
 31
0.0
  0
LINE
  5
183
330
1F
100
AcDbEntity
  8
0
  6
Continuous
 62
     7
100
AcDbLine
 10
145.1702730289
 20
691.3614646457
 30
0.0
 11
195.1702730289
 21
691.3614646457
 31
0.0
  0
LINE
  5
184
330
1F
100
AcDbEntity
  8
0
  6
Continuous
 62
     7
100
AcDbLine
 10
145.1702730289
 20
676.3614646457
 30
0.0
 11
195.1702730289
 21
676.3614646457
 31
0.0
  0
LINE
  5
185
330
1F
100
AcDbEntity
  8
0
  6
Continuous
 62
     7
100
AcDbLine
 10
325.1702730289
 20
625.3614646457
 30
0.0
 11
375.1702730289
 21
625.3614646457
 31
0.0
  0
LINE
  5
186
330
1F
100
AcDbEntity
  8
0
  6
Continuous
 62
     7
100
AcDbLine
 10
45.1702730289
 20
711.1014646457
 30
0.0
 11
565.1702730289
 21
711.1014646457
 31
0.0
  0
LINE
  5
187
330
1F
100
AcDbEntity
  8
0
  6
CENTERX2
 62
     7
100
AcDbLine
 10
17.9302730289
 20
683.8614646457
 30
0.0
 11
21.0964078446
 21
683.8614646457
 31
0.0
  0
LINE
  5
188
330
1F
100
AcDbEntity
  8
0
  6
Continuous
 62
     7
100
AcDbLine
 10
285.1702730289
 20
625.3614646457
 30
0.0
 11
235.1702730289
 21
625.3614646457
 31
0.0
  0
LINE
  5
189
330
1F
100
AcDbEntity
  8
0
  6
Continuous
 62
     7
100
AcDbLine
 10
465.1702730289
 20
676.3614646457
 30
0.0
 11
415.1702730289
 21
676.3614646457
 31
0.0
  0
LINE
  5
18A
330
1F
100
AcDbEntity
  8
0
  6
Continuous
 62
     7
100
AcDbLine
 10
285.1702730289
 20
640.3614646457
 30
0.0
 11
235.1702730289
 21
640.3614646457
 31
0.0
  0
LINE
  5
18B
330
1F
100
AcDbEntity
  8
0
  6
CENTERX2
 62
     7
100
AcDbLine
 10
137.6702730289
 20
627.8614646457
 30
0.0
 11
125.1702730289
 21
627.8614646457
 31
0.0
  0
LINE
  5
18C
330
1F
100
AcDbEntity
  8
0
  6
CENTERX2
 62
     7
100
AcDbLine
 10
202.6702730289
 20
674.9359327308
 30
0.0
 11
215.1702730289
 21
672.914656135
 31
0.0
  0
LINE
  5
18D
330
1F
100
AcDbEntity
  8
0
  6
Continuous
 62
     7
100
AcDbLine
 10
465.1702730289
 20
691.3614646457
 30
0.0
 11
415.1702730289
 21
691.3614646457
 31
0.0
  0
LINE
  5
18E
330
1F
100
AcDbEntity
  8
0
  6
CENTERX2
 62
     7
100
AcDbLine
 10
298.6702730289
 20
658.3614646457
 30
0.0
 11
163.3721524691
 21
658.3614646457
 31
0.0
  0
LINE
  5
18F
330
1F
100
AcDbEntity
  8
0
  6
CENTERX2
 62
     7
100
AcDbLine
 10
395.1702730289
 20
627.8614646457
 30
0.0
 11
393.1702730289
 21
627.8614646457
 31
0.0
  0
LINE
  5
190
330
1F
100
AcDbEntity
  8
0
  6
CENTERX2
 62
     7
100
AcDbLine
 10
170.1702730289
 20
691.3614646457
 30
0.0
 11
170.1702730289
 21
666.5084319262
 31
0.0
  0
LINE
  5
191
330
1F
100
AcDbEntity
  8
0
  6
CENTERX2
 62
     7
100
AcDbLine
 10
440.1702730289
 20
691.3614646457
 30
0.0
 11
440.1702730289
 21
672.3922177584
 31
0.0
  0
LINE
  5
192
330
1F
100
AcDbEntity
  8
0
  6
CENTERX2
 62
     7
100
AcDbLine
 10
217.1702730289
 20
627.8614646457
 30
0.0
 11
215.1702730289
 21
627.8614646457
 31
0.0
  0
LINE
  5
193
330
1F
100
AcDbEntity
  8
0
  6
Continuous
 62
     7
100
AcDbLine
 10
145.1702730289
 20
625.3614646457
 30
0.0
 11
195.1702730289
 21
625.3614646457
 31
0.0
  0
LINE
  5
194
330
1F
100
AcDbEntity
  8
0
  6
CENTERX2
 62
     7
100
AcDbLine
 10
222.0711606105
 20
644.924161361
 30
0.0
 11
202.6702730289
 21
641.7869965606
 31
0.0
  0
LINE
  5
195
330
1F
100
AcDbEntity
  8
0
  6
CENTERX2
 62
     7
100
AcDbLine
 10
215.1702730289
 20
672.914656135
 30
0.0
 11
202.6702730289
 21
674.9359327308
 31
0.0
  0
LINE
  5
196
330
1F
100
AcDbEntity
  8
0
  6
Continuous
 62
     7
100
AcDbLine
 10
145.1702730289
 20
640.3614646457
 30
0.0
 11
195.1702730289
 21
640.3614646457
 31
0.0
  0
LINE
  5
197
330
1F
100
AcDbEntity
  8
0
  6
CENTERX2
 62
     7
100
AcDbLine
 10
388.2693854473
 20
644.924161361
 30
0.0
 11
407.6702730289
 21
641.7869965605
 31
0.0
  0
LINE
  5
198
330
1F
100
AcDbEntity
  8
0
  6
CENTERX2
 62
     7
100
AcDbLine
 10
395.1702730289
 20
672.914656135
 30
0.0
 11
407.6702730289
 21
674.9359327308
 31
0.0
  0
LINE
  5
199
330
1F
100
AcDbEntity
  8
0
  6
CENTERX2
 62
     7
100
AcDbLine
 10
395.1702730289
 20
627.8614646457
 30
0.0
 11
395.1702730289
 21
683.8614646457
 31
0.0
  0
LINE
  5
19A
330
1F
100
AcDbEntity
  8
0
  6
CENTERX2
 62
     7
100
AcDbLine
 10
395.1702730289
 20
627.8614646457
 30
0.0
 11
397.1702730289
 21
627.8614646457
 31
0.0
  0
LINE
  5
19B
330
1F
100
AcDbEntity
  8
0
  6
CENTERX2
 62
     7
100
AcDbLine
 10
570.6119782118
 20
655.1269137555
 30
0.0
 11
570.58865926
 21
655.5431156124
 31
0.0
  0
LINE
  5
19C
330
1F
100
AcDbEntity
  8
0
  6
CENTERX2
 62
     7
100
AcDbLine
 10
395.1702730289
 20
627.8614646457
 30
0.0
 11
397.1702730289
 21
627.8614646457
 31
0.0
  0
LINE
  5
19D
330
1F
100
AcDbEntity
  8
0
  6
CENTERX2
 62
     7
100
AcDbLine
 10
407.6702730289
 20
641.7869965605
 30
0.0
 11
388.2693854473
 21
644.924161361
 31
0.0
  0
LINE
  5
19E
330
1F
100
AcDbEntity
  8
0
  6
Continuous
 62
     7
100
AcDbLine
 10
325.1702730289
 20
676.3614646457
 30
0.0
 11
375.1702730289
 21
676.3614646457
 31
0.0
  0
LINE
  5
19F
330
1F
100
AcDbEntity
  8
0
  6
Continuous
 62
     7
100
AcDbLine
 10
402.6702730289
 20
663.8614646457
 30
0.0
 11
402.6702730289
 21
647.8614646457
 31
0.0
  0
LINE
  5
1A0
330
1F
100
AcDbEntity
  8
0
  6
Continuous
 62
     7
100
AcDbLine
 10
387.6702730289
 20
663.8614646457
 30
0.0
 11
387.6702730289
 21
647.8614646457
 31
0.0
  0
LINE
  5
1A1
330
1F
100
AcDbEntity
  8
0
  6
Continuous
 62
     7
100
AcDbLine
 10
577.9129373157
 20
659.7857069863
 30
0.0
 11
504.653854026
 21
613.0385719228
 31
0.0
  0
LINE
  5
1A2
330
1F
100
AcDbEntity
  8
0
  6
CENTERX2
 62
     7
100
AcDbLine
 10
409.2680740402
 20
789.771462053
 30
0.0
 11
396.7680740402
 21
787.7501854573
 31
0.0
  0
LINE
  5
1A3
330
1F
100
AcDbEntity
  8
0
  6
CENTERX2
 62
     7
100
AcDbLine
 10
396.7680740402
 20
742.6969939679
 30
0.0
 11
486.7680740402
 21
742.6969939679
 31
0.0
  0
LINE
  5
1A4
330
1F
100
AcDbEntity
  8
0
  6
CENTERX2
 62
     7
100
AcDbLine
 10
204.2680740402
 20
756.6225258828
 30
0.0
 11
223.6689616218
 21
759.7596906833
 31
0.0
  0
LINE
  5
1A5
330
1F
100
AcDbEntity
  8
0
  6
CENTERX2
 62
     7
100
AcDbLine
 10
90.8314298345
 20
742.6969939679
 30
0.0
 11
46.7680740402
 21
742.6969939679
 31
0.0
  0
LINE
  5
1A6
330
1F
100
AcDbEntity
  8
0
  6
CENTERX2
 62
     7
100
AcDbLine
 10
216.7680740402
 20
742.6969939679
 30
0.0
 11
214.7680740402
 21
742.6969939679
 31
0.0
  0
LINE
  5
1A7
330
1F
100
AcDbEntity
  8
0
  6
CENTERX2
 62
     7
100
AcDbLine
 10
118.1496529876
 20
742.6969939679
 30
0.0
 11
124.7680740402
 21
742.6969939679
 31
0.0
  0
LINE
  5
1A8
330
1F
100
AcDbEntity
  8
0
  6
CENTERX2
 62
     7
100
AcDbLine
 10
46.7680740402
 20
742.6969939679
 30
0.0
 11
46.7680740402
 21
767.8768797893
 31
0.0
  0
LINE
  5
1A9
330
1F
100
AcDbEntity
  8
0
  6
Continuous
 62
     7
100
AcDbLine
 10
127.5724615192
 20
725.1092461759
 30
0.0
 11
485.9636865613
 21
725.1092461759
 31
0.0
  0
LINE
  5
1AA
330
1F
100
AcDbEntity
  8
0
  6
CENTERX2
 62
     7
100
AcDbLine
 10
46.7680740402
 20
798.6969939679
 30
0.0
 11
126.7680740402
 21
742.6969939679
 31
0.0
  0
LINE
  5
1AB
330
1F
100
AcDbEntity
  8
0
  6
Continuous
 62
     7
100
AcDbLine
 10
485.9636865613
 20
725.1092461759
 30
0.0
 11
496.7788638973
 21
725.1092461759
 31
0.0
  0
LINE
  5
1AC
330
1F
100
AcDbEntity
  8
0
  6
CENTERX2
 62
     7
100
AcDbLine
 10
306.7680740402
 20
742.6969939679
 30
0.0
 11
294.2680740402
 21
742.6969939679
 31
0.0
  0
LINE
  5
1AD
330
1F
100
AcDbEntity
  8
0
  6
CENTERX2
 62
     7
100
AcDbLine
 10
126.7680740402
 20
742.6969939679
 30
0.0
 11
139.2680740402
 21
742.6969939679
 31
0.0
  0
LINE
  5
1AE
330
1F
100
AcDbEntity
  8
0
  6
CENTERX2
 62
     7
100
AcDbLine
 10
216.7680740402
 20
742.6969939679
 30
0.0
 11
214.7680740402
 21
742.6969939679
 31
0.0
  0
LINE
  5
1AF
330
1F
100
AcDbEntity
  8
0
  6
CENTERX2
 62
     7
100
AcDbLine
 10
216.7680740402
 20
742.6969939679
 30
0.0
 11
216.7680740402
 21
798.6969939679
 31
0.0
  0
LINE
  5
1B0
330
1F
100
AcDbEntity
  8
0
  6
CENTERX2
 62
     7
100
AcDbLine
 10
124.7681209906
 20
742.683289976
 30
0.0
 11
118.1496529876
 21
742.6969939679
 31
0.0
  0
LINE
  5
1B1
330
1F
100
AcDbEntity
  8
0
  6
CENTERX2
 62
     7
100
AcDbLine
 10
126.7680740402
 20
742.6969939679
 30
0.0
 11
110.3834356299
 21
754.1662408552
 31
0.0
  0
LINE
  5
1B2
330
1F
100
AcDbEntity
  8
0
  6
CENTERX2
 62
     7
100
AcDbLine
 10
110.3834356299
 20
754.1662408552
 30
0.0
 11
85.0991699888
 21
771.8652268039
 31
0.0
  0
LINE
  5
1B3
330
1F
100
AcDbEntity
  8
0
  6
CENTERX2
 62
     7
100
AcDbLine
 10
46.7680740402
 20
798.6969939679
 30
0.0
 11
63.1527124506
 21
787.2277470807
 31
0.0
  0
LINE
  5
1B4
330
1F
100
AcDbEntity
  8
0
  6
Continuous
 62
     7
100
AcDbLine
 10
34.0254097535
 20
774.6212363085
 30
0.0
 11
118.1424519638
 21
727.3485557605
 31
0.0
  0
LINE
  5
1B5
330
1F
100
AcDbEntity
  8
0
  6
CENTERX2
 62
     7
100
AcDbLine
 10
216.7680740402
 20
798.6969939679
 30
0.0
 11
216.7680740402
 21
778.6969939679
 31
0.0
  0
LINE
  5
1B6
330
1F
100
AcDbEntity
  8
0
  6
CENTERX2
 62
     7
100
AcDbLine
 10
216.7680740402
 20
742.6969939679
 30
0.0
 11
216.7680740402
 21
762.6969939679
 31
0.0
  0
LINE
  5
1B7
330
1F
100
AcDbEntity
  8
0
  6
Continuous
 62
     7
100
AcDbLine
 10
224.2680740402
 20
778.6969939679
 30
0.0
 11
224.2680740402
 21
762.6969939679
 31
0.0
  0
LINE
  5
1B8
330
1F
100
AcDbEntity
  8
0
  6
Continuous
 62
     7
100
AcDbLine
 10
209.2680740402
 20
778.6969939679
 30
0.0
 11
209.281961501
 21
762.2407932993
 31
0.0
  0
LINE
  5
1B9
330
1F
100
AcDbEntity
  8
0
  6
CENTERX2
 62
     7
100
AcDbLine
 10
216.9962800391
 20
811.1969939679
 30
0.0
 11
216.9962800391
 21
755.2004666371
 31
0.0
  0
LINE
  5
1BA
330
1F
100
AcDbEntity
  8
0
  6
Continuous
 62
     7
100
AcDbLine
 10
286.7680740402
 20
791.1969939679
 30
0.0
 11
236.7680740402
 21
791.1969939679
 31
0.0
  0
LINE
  5
1BB
330
1F
100
AcDbEntity
  8
0
  6
Continuous
 62
     7
100
AcDbLine
 10
286.7680740402
 20
806.1969939679
 30
0.0
 11
236.7680740402
 21
806.1969939679
 31
0.0
  0
LINE
  5
1BC
330
1F
100
AcDbEntity
  8
0
  6
CENTERX2
 62
     7
100
AcDbLine
 10
594.0080740402
 20
798.6969939679
 30
0.0
 11
590.8419392245
 21
798.6969939679
 31
0.0
  0
LINE
  5
1BD
330
1F
100
AcDbEntity
  8
0
  6
CENTERX2
 62
     7
100
AcDbLine
 10
566.7680740402
 20
825.9369939679
 30
0.0
 11
566.7680740402
 21
798.6969939679
 31
0.0
  0
LINE
  5
1BE
330
1F
100
AcDbEntity
  8
0
  6
CENTERX2
 62
     7
100
AcDbLine
 10
396.7680740402
 20
811.1969939679
 30
0.0
 11
396.7680740402
 21
755.1969939679
 31
0.0
  0
LINE
  5
1BF
330
1F
100
AcDbEntity
  8
0
  6
CENTERX2
 62
     7
100
AcDbLine
 10
396.7680740402
 20
742.6969939679
 30
0.0
 11
396.7680740402
 21
762.6969939679
 31
0.0
  0
LINE
  5
1C0
330
1F
100
AcDbEntity
  8
0
  6
CENTERX2
 62
     7
100
AcDbLine
 10
396.7680740402
 20
798.6969939679
 30
0.0
 11
396.7680740402
 21
778.6969939679
 31
0.0
  0
LINE
  5
1C1
330
1F
100
AcDbEntity
  8
0
  6
CENTERX2
 62
     7
100
AcDbLine
 10
566.7680740402
 20
798.6969939679
 30
0.0
 11
566.7680740402
 21
805.6969939679
 31
0.0
  0
LINE
  5
1C2
330
1F
100
AcDbEntity
  8
0
  6
Continuous
 62
     7
100
AcDbLine
 10
466.7680740402
 20
740.1969939679
 30
0.0
 11
416.7680740402
 21
740.1969939679
 31
0.0
  0
LINE
  5
1C3
330
1F
100
AcDbEntity
  8
0
  6
CENTERX2
 62
     7
100
AcDbLine
 10
46.7680740402
 20
770.6894511338
 30
0.0
 11
46.7680740402
 21
798.6969939679
 31
0.0
  0
LINE
  5
1C4
330
1F
100
AcDbEntity
  8
0
  6
Continuous
 62
     7
100
AcDbLine
 10
466.7680740402
 20
755.1969939679
 30
0.0
 11
416.7680740402
 21
755.1969939679
 31
0.0
  0
LINE
  5
1C5
330
1F
100
AcDbEntity
  8
0
  6
Continuous
 62
     7
100
AcDbLine
 10
326.7680740402
 20
755.1969939679
 30
0.0
 11
376.7680740402
 21
755.1969939679
 31
0.0
  0
LINE
  5
1C6
330
1F
100
AcDbEntity
  8
0
  6
Continuous
 62
     7
100
AcDbLine
 10
326.7680740402
 20
806.1969939679
 30
0.0
 11
376.7680740402
 21
806.1969939679
 31
0.0
  0
LINE
  5
1C7
330
1F
100
AcDbEntity
  8
0
  6
CENTERX2
 62
     7
100
AcDbLine
 10
566.7680740402
 20
798.6969939679
 30
0.0
 11
566.7680740402
 21
791.6969939679
 31
0.0
  0
LINE
  5
1C8
330
1F
100
AcDbEntity
  8
0
  6
Continuous
 62
     7
100
AcDbLine
 10
146.7680740402
 20
806.1969939679
 30
0.0
 11
196.7680740402
 21
806.1969939679
 31
0.0
  0
LINE
  5
1C9
330
1F
100
AcDbEntity
  8
0
  6
Continuous
 62
     7
100
AcDbLine
 10
146.7680740402
 20
791.1969939679
 30
0.0
 11
196.7680740402
 21
791.1969939679
 31
0.0
  0
LINE
  5
1CA
330
1F
100
AcDbEntity
  8
0
  6
Continuous
 62
     7
100
AcDbLine
 10
326.7680740402
 20
740.1969939679
 30
0.0
 11
376.7680740402
 21
740.1969939679
 31
0.0
  0
LINE
  5
1CB
330
1F
100
AcDbEntity
  8
0
  6
Continuous
 62
     7
100
AcDbLine
 10
46.7680740402
 20
825.9369939679
 30
0.0
 11
566.7680740402
 21
825.9369939679
 31
0.0
  0
LINE
  5
1CC
330
1F
100
AcDbEntity
  8
0
  6
CENTERX2
 62
     7
100
AcDbLine
 10
19.5280740402
 20
798.6969939679
 30
0.0
 11
22.694208856
 21
798.6969939679
 31
0.0
  0
LINE
  5
1CD
330
1F
100
AcDbEntity
  8
0
  6
Continuous
 62
     7
100
AcDbLine
 10
286.7680740402
 20
740.1969939679
 30
0.0
 11
236.7680740402
 21
740.1969939679
 31
0.0
  0
LINE
  5
1CE
330
1F
100
AcDbEntity
  8
0
  6
Continuous
 62
     7
100
AcDbLine
 10
466.7680740402
 20
791.1969939679
 30
0.0
 11
416.7680740402
 21
791.1969939679
 31
0.0
  0
LINE
  5
1CF
330
1F
100
AcDbEntity
  8
0
  6
Continuous
 62
     7
100
AcDbLine
 10
286.7680740402
 20
755.1969939679
 30
0.0
 11
236.7680740402
 21
755.1969939679
 31
0.0
  0
LINE
  5
1D0
330
1F
100
AcDbEntity
  8
0
  6
CENTERX2
 62
     7
100
AcDbLine
 10
139.2680740402
 20
742.6969939679
 30
0.0
 11
126.7680740402
 21
742.6969939679
 31
0.0
  0
LINE
  5
1D1
330
1F
100
AcDbEntity
  8
0
  6
CENTERX2
 62
     7
100
AcDbLine
 10
204.2680740402
 20
789.771462053
 30
0.0
 11
216.7680740402
 21
787.7501854573
 31
0.0
  0
LINE
  5
1D2
330
1F
100
AcDbEntity
  8
0
  6
Continuous
 62
     7
100
AcDbLine
 10
466.7680740402
 20
806.1969939679
 30
0.0
 11
416.7680740402
 21
806.1969939679
 31
0.0
  0
LINE
  5
1D3
330
1F
100
AcDbEntity
  8
0
  6
CENTERX2
 62
     7
100
AcDbLine
 10
300.2680740402
 20
773.1969939679
 30
0.0
 11
164.9699534804
 21
773.1969939679
 31
0.0
  0
LINE
  5
1D4
330
1F
100
AcDbEntity
  8
0
  6
CENTERX2
 62
     7
100
AcDbLine
 10
396.7680740402
 20
742.6969939679
 30
0.0
 11
394.7680740402
 21
742.6969939679
 31
0.0
  0
LINE
  5
1D5
330
1F
100
AcDbEntity
  8
0
  6
CENTERX2
 62
     7
100
AcDbLine
 10
171.7680740402
 20
806.1969939679
 30
0.0
 11
171.7680740402
 21
781.3439612484
 31
0.0
  0
LINE
  5
1D6
330
1F
100
AcDbEntity
  8
0
  6
CENTERX2
 62
     7
100
AcDbLine
 10
441.7680740402
 20
806.1969939679
 30
0.0
 11
441.7680740402
 21
787.2277470807
 31
0.0
  0
LINE
  5
1D7
330
1F
100
AcDbEntity
  8
0
  6
CENTERX2
 62
     7
100
AcDbLine
 10
218.7680740402
 20
742.6969939679
 30
0.0
 11
216.7680740402
 21
742.6969939679
 31
0.0
  0
LINE
  5
1D8
330
1F
100
AcDbEntity
  8
0
  6
Continuous
 62
     7
100
AcDbLine
 10
146.7680740402
 20
740.1969939679
 30
0.0
 11
196.7680740402
 21
740.1969939679
 31
0.0
  0
LINE
  5
1D9
330
1F
100
AcDbEntity
  8
0
  6
CENTERX2
 62
     7
100
AcDbLine
 10
223.6689616218
 20
759.7596906833
 30
0.0
 11
204.2680740402
 21
756.6225258828
 31
0.0
  0
LINE
  5
1DA
330
1F
100
AcDbEntity
  8
0
  6
CENTERX2
 62
     7
100
AcDbLine
 10
216.7680740402
 20
787.7501854573
 30
0.0
 11
204.2680740402
 21
789.771462053
 31
0.0
  0
LINE
  5
1DB
330
1F
100
AcDbEntity
  8
0
  6
Continuous
 62
     7
100
AcDbLine
 10
146.7680740402
 20
755.1969939679
 30
0.0
 11
196.7680740402
 21
755.1969939679
 31
0.0
  0
LINE
  5
1DC
330
1F
100
AcDbEntity
  8
0
  6
CENTERX2
 62
     7
100
AcDbLine
 10
389.8671864587
 20
759.7596906833
 30
0.0
 11
409.2680740402
 21
756.6225258828
 31
0.0
  0
LINE
  5
1DD
330
1F
100
AcDbEntity
  8
0
  6
CENTERX2
 62
     7
100
AcDbLine
 10
396.7680740402
 20
787.7501854573
 30
0.0
 11
409.2680740402
 21
789.771462053
 31
0.0
  0
LINE
  5
1DE
330
1F
100
AcDbEntity
  8
0
  6
CENTERX2
 62
     7
100
AcDbLine
 10
396.7680740402
 20
742.6969939679
 30
0.0
 11
396.7680740402
 21
798.6969939679
 31
0.0
  0
LINE
  5
1DF
330
1F
100
AcDbEntity
  8
0
  6
CENTERX2
 62
     7
100
AcDbLine
 10
396.7680740402
 20
742.6969939679
 30
0.0
 11
398.7680740402
 21
742.6969939679
 31
0.0
  0
LINE
  5
1E0
330
1F
100
AcDbEntity
  8
0
  6
CENTERX2
 62
     7
100
AcDbLine
 10
572.2097792232
 20
769.9624430778
 30
0.0
 11
572.1864602714
 21
770.3786449347
 31
0.0
  0
LINE
  5
1E1
330
1F
100
AcDbEntity
  8
0
  6
CENTERX2
 62
     7
100
AcDbLine
 10
396.7680740402
 20
742.6969939679
 30
0.0
 11
398.7680740402
 21
742.6969939679
 31
0.0
  0
LINE
  5
1E2
330
1F
100
AcDbEntity
  8
0
  6
CENTERX2
 62
     7
100
AcDbLine
 10
409.2680740402
 20
756.6225258828
 30
0.0
 11
389.8671864587
 21
759.7596906833
 31
0.0
  0
LINE
  5
1E3
330
1F
100
AcDbEntity
  8
0
  6
Continuous
 62
     7
100
AcDbLine
 10
326.7680740402
 20
791.1969939679
 30
0.0
 11
376.7680740402
 21
791.1969939679
 31
0.0
  0
LINE
  5
1E4
330
1F
100
AcDbEntity
  8
0
  6
Continuous
 62
     7
100
AcDbLine
 10
404.2680740402
 20
778.6969939679
 30
0.0
 11
404.2680740402
 21
762.6969939679
 31
0.0
  0
LINE
  5
1E5
330
1F
100
AcDbEntity
  8
0
  6
Continuous
 62
     7
100
AcDbLine
 10
389.2680740402
 20
778.6969939679
 30
0.0
 11
389.2680740402
 21
762.6969939679
 31
0.0
  0
LINE
  5
1E6
330
1F
100
AcDbEntity
  8
0
  6
Continuous
 62
     7
100
AcDbLine
 10
579.510738327
 20
774.6212363085
 30
0.0
 11
506.2516550373
 21
727.8741012451
 31
0.0
  0
LINE
  5
1E7
330
1F
100
AcDbEntity
  8
0
  6
Continuous
 62
     7
100
AcDbLine
 10
5.5498355743
 20
108.5352571461
 30
0.0
 11
95.5498355743
 21
108.5352571461
 31
0.0
  0
LINE
  5
1E8
330
1F
100
AcDbEntity
  8
0
  6
Continuous
 62
     7
100
AcDbLine
 10
5.5498355743
 20
108.5352571461
 30
0.0
 11
5.5498355743
 21
590.5352571461
 31
0.0
  0
LINE
  5
1E9
330
1F
100
AcDbEntity
  8
0
  6
Continuous
 62
     7
100
AcDbLine
 10
5.5498355743
 20
590.5352571461
 30
0.0
 11
95.5498355743
 21
590.5352571461
 31
0.0
  0
LINE
  5
1EA
330
1F
100
AcDbEntity
  8
0
  6
Continuous
 62
     7
100
AcDbLine
 10
95.5498355743
 20
108.5352571461
 30
0.0
 11
95.5498355743
 21
590.5352571461
 31
0.0
  0
LINE
  5
1EB
330
1F
100
AcDbEntity
  8
0
  6
Continuous
 62
     7
100
AcDbLine
 10
34.0914090714
 20
292.3286337338
 30
0.0
 11
34.0914090714
 21
269.7217232859
 31
0.0
  0
LINE
  5
1EC
330
1F
100
AcDbEntity
  8
0
  6
Continuous
 62
     7
100
AcDbLine
 10
37.9079204823
 20
296.3656708682
 30
0.0
 11
38.0914090714
 21
265.5407314742
 31
0.0
  0
LINE
  5
1ED
330
1F
100
AcDbEntity
  8
0
  6
Continuous
 62
     7
100
AcDbLine
 10
38.0914090714
 20
265.5407314742
 30
0.0
 11
42.0914090714
 21
263.1431176666
 31
0.0
  0
LINE
  5
1EE
330
1F
100
AcDbEntity
  8
0
  6
Continuous
 62
     7
100
AcDbLine
 10
42.0914090714
 20
263.1431176666
 30
0.0
 11
42.0914090714
 21
298.907239353
 31
0.0
  0
LINE
  5
1EF
330
1F
100
AcDbEntity
  8
0
  6
Continuous
 62
     7
100
AcDbLine
 10
42.0914090714
 20
298.907239353
 30
0.0
 11
37.9079204823
 21
296.3656708682
 31
0.0
  0
LINE
  5
1F0
330
1F
100
AcDbEntity
  8
0
  6
Continuous
 62
     7
100
AcDbLine
 10
46.0914090714
 20
300.202459339
 30
0.0
 11
46.0914090714
 21
261.8478976807
 31
0.0
  0
LINE
  5
1F1
330
1F
100
AcDbEntity
  8
0
  6
Continuous
 62
     7
100
AcDbLine
 10
46.0914090714
 20
261.8478976807
 30
0.0
 11
50.0914090714
 21
261.4351785098
 31
0.0
  0
LINE
  5
1F2
330
1F
100
AcDbEntity
  8
0
  6
Continuous
 62
     7
100
AcDbLine
 10
50.0914090714
 20
261.4351785098
 30
0.0
 11
50.0914090714
 21
300.6151785098
 31
0.0
  0
LINE
  5
1F3
330
1F
100
AcDbEntity
  8
0
  6
Continuous
 62
     7
100
AcDbLine
 10
50.0914090714
 20
300.6151785098
 30
0.0
 11
46.0914090714
 21
300.202459339
 31
0.0
  0
LINE
  5
1F4
330
1F
100
AcDbEntity
  8
0
  6
Continuous
 62
     7
100
AcDbLine
 10
54.0914090714
 20
261.8478976807
 30
0.0
 11
58.0914090714
 21
263.1431176666
 31
0.0
  0
LINE
  5
1F5
330
1F
100
AcDbEntity
  8
0
  6
Continuous
 62
     7
100
AcDbLine
 10
58.0914090714
 20
263.1431176666
 30
0.0
 11
58.0914090714
 21
298.907239353
 31
0.0
  0
LINE
  5
1F6
330
1F
100
AcDbEntity
  8
0
  6
Continuous
 62
     7
100
AcDbLine
 10
58.0914090714
 20
298.907239353
 30
0.0
 11
54.0914090714
 21
300.202459339
 31
0.0
  0
LINE
  5
1F7
330
1F
100
AcDbEntity
  8
0
  6
Continuous
 62
     7
100
AcDbLine
 10
54.0914090714
 20
300.202459339
 30
0.0
 11
54.0914090714
 21
261.8478976807
 31
0.0
  0
LINE
  5
1F8
330
1F
100
AcDbEntity
  8
0
  6
Continuous
 62
     7
100
AcDbLine
 10
62.0914090714
 20
265.5407314742
 30
0.0
 11
62.2748976606
 21
296.3656708682
 31
0.0
  0
LINE
  5
1F9
330
1F
100
AcDbEntity
  8
0
  6
Continuous
 62
     7
100
AcDbLine
 10
62.2748976606
 20
296.3656708682
 30
0.0
 11
66.0914090714
 21
292.3286337338
 31
0.0
  0
LINE
  5
1FA
330
1F
100
AcDbEntity
  8
0
  6
Continuous
 62
     7
100
AcDbLine
 10
66.0914090714
 20
292.3286337338
 30
0.0
 11
66.0914090714
 21
269.7217232859
 31
0.0
  0
LINE
  5
1FB
330
1F
100
AcDbEntity
  8
0
  6
Continuous
 62
     7
100
AcDbLine
 10
66.0914090714
 20
269.7217232859
 30
0.0
 11
62.0914090714
 21
265.5407314742
 31
0.0
  0
LINE
  5
1FC
330
1F
100
AcDbEntity
  8
0
  6
Continuous
 62
     7
100
AcDbLine
 10
66.0914090714
 20
177.7217232859
 30
0.0
 11
62.2748976606
 21
173.6846861515
 31
0.0
  0
LINE
  5
1FD
330
1F
100
AcDbEntity
  8
0
  6
Continuous
 62
     7
100
AcDbLine
 10
62.2748976606
 20
173.6846861515
 30
0.0
 11
62.0914090714
 21
204.5096255455
 31
0.0
  0
LINE
  5
1FE
330
1F
100
AcDbEntity
  8
0
  6
Continuous
 62
     7
100
AcDbLine
 10
62.0914090714
 20
204.5096255455
 30
0.0
 11
66.0914090714
 21
200.3286337338
 31
0.0
  0
LINE
  5
1FF
330
1F
100
AcDbEntity
  8
0
  6
Continuous
 62
     7
100
AcDbLine
 10
66.0914090714
 20
200.3286337338
 30
0.0
 11
66.0914090714
 21
177.7217232859
 31
0.0
  0
LINE
  5
200
330
1F
100
AcDbEntity
  8
0
  6
Continuous
 62
     7
100
AcDbLine
 10
58.0914090714
 20
171.1431176666
 30
0.0
 11
54.0914090714
 21
169.8478976807
 31
0.0
  0
LINE
  5
201
330
1F
100
AcDbEntity
  8
0
  6
Continuous
 62
     7
100
AcDbLine
 10
54.0914090714
 20
169.8478976807
 30
0.0
 11
54.0914090714
 21
208.202459339
 31
0.0
  0
LINE
  5
202
330
1F
100
AcDbEntity
  8
0
  6
Continuous
 62
     7
100
AcDbLine
 10
54.0914090714
 20
208.202459339
 30
0.0
 11
58.0914090714
 21
206.907239353
 31
0.0
  0
LINE
  5
203
330
1F
100
AcDbEntity
  8
0
  6
Continuous
 62
     7
100
AcDbLine
 10
58.0914090714
 20
206.907239353
 30
0.0
 11
58.0914090714
 21
171.1431176666
 31
0.0
  0
LINE
  5
204
330
1F
100
AcDbEntity
  8
0
  6
Continuous
 62
     7
100
AcDbLine
 10
50.0914090714
 20
169.4351785098
 30
0.0
 11
46.0914090714
 21
169.8478976807
 31
0.0
  0
LINE
  5
205
330
1F
100
AcDbEntity
  8
0
  6
Continuous
 62
     7
100
AcDbLine
 10
46.0914090714
 20
169.8478976807
 30
0.0
 11
46.0914090714
 21
208.202459339
 31
0.0
  0
LINE
  5
206
330
1F
100
AcDbEntity
  8
0
  6
Continuous
 62
     7
100
AcDbLine
 10
46.0914090714
 20
208.202459339
 30
0.0
 11
50.0914090714
 21
208.6151785098
 31
0.0
  0
LINE
  5
207
330
1F
100
AcDbEntity
  8
0
  6
Continuous
 62
     7
100
AcDbLine
 10
50.0914090714
 20
208.6151785098
 30
0.0
 11
50.0914090714
 21
169.4351785098
 31
0.0
  0
LINE
  5
208
330
1F
100
AcDbEntity
  8
0
  6
Continuous
 62
     7
100
AcDbLine
 10
42.0914090714
 20
171.1431176666
 30
0.0
 11
37.9079204823
 21
173.6846861515
 31
0.0
  0
LINE
  5
209
330
1F
100
AcDbEntity
  8
0
  6
Continuous
 62
     7
100
AcDbLine
 10
37.9079204823
 20
173.6846861515
 30
0.0
 11
38.0914090714
 21
204.5096255455
 31
0.0
  0
LINE
  5
20A
330
1F
100
AcDbEntity
  8
0
  6
Continuous
 62
     7
100
AcDbLine
 10
38.0914090714
 20
204.5096255455
 30
0.0
 11
42.0914090714
 21
206.907239353
 31
0.0
  0
LINE
  5
20B
330
1F
100
AcDbEntity
  8
0
  6
Continuous
 62
     7
100
AcDbLine
 10
42.0914090714
 20
206.907239353
 30
0.0
 11
42.0914090714
 21
171.1431176666
 31
0.0
  0
LINE
  5
20C
330
1F
100
AcDbEntity
  8
0
  6
Continuous
 62
     7
100
AcDbLine
 10
34.0914090714
 20
200.3286337338
 30
0.0
 11
34.0914090714
 21
177.7217232859
 31
0.0
  0
LINE
  5
20D
330
1F
100
AcDbEntity
  8
0
  6
Continuous
 62
     7
100
AcDbLine
 10
209.2282501449
 20
591.2605189714
 30
0.0
 11
209.2282501449
 21
501.2605189714
 31
0.0
  0
LINE
  5
20E
330
1F
100
AcDbEntity
  8
0
  6
Continuous
 62
     7
100
AcDbLine
 10
209.2282501449
 20
591.2605189714
 30
0.0
 11
691.2282501449
 21
591.2605189714
 31
0.0
  0
LINE
  5
20F
330
1F
100
AcDbEntity
  8
0
  6
Continuous
 62
     7
100
AcDbLine
 10
691.2282501449
 20
591.2605189714
 30
0.0
 11
691.2282501449
 21
501.2605189714
 31
0.0
  0
LINE
  5
210
330
1F
100
AcDbEntity
  8
0
  6
Continuous
 62
     7
100
AcDbLine
 10
209.2282501449
 20
501.2605189714
 30
0.0
 11
691.2282501449
 21
501.2605189714
 31
0.0
  0
LINE
  5
211
330
1F
100
AcDbEntity
  8
0
  6
Continuous
 62
     7
100
AcDbLine
 10
393.0216267326
 20
562.7189454743
 30
0.0
 11
370.4147162847
 21
562.7189454743
 31
0.0
  0
LINE
  5
212
330
1F
100
AcDbEntity
  8
0
  6
Continuous
 62
     7
100
AcDbLine
 10
397.058663867
 20
558.9024340634
 30
0.0
 11
366.233724473
 21
558.7189454743
 31
0.0
  0
LINE
  5
213
330
1F
100
AcDbEntity
  8
0
  6
Continuous
 62
     7
100
AcDbLine
 10
366.233724473
 20
558.7189454743
 30
0.0
 11
363.8361106654
 21
554.7189454743
 31
0.0
  0
LINE
  5
214
330
1F
100
AcDbEntity
  8
0
  6
Continuous
 62
     7
100
AcDbLine
 10
363.8361106654
 20
554.7189454743
 30
0.0
 11
399.6002323518
 21
554.7189454743
 31
0.0
  0
LINE
  5
215
330
1F
100
AcDbEntity
  8
0
  6
Continuous
 62
     7
100
AcDbLine
 10
399.6002323518
 20
554.7189454743
 30
0.0
 11
397.058663867
 21
558.9024340634
 31
0.0
  0
LINE
  5
216
330
1F
100
AcDbEntity
  8
0
  6
Continuous
 62
     7
100
AcDbLine
 10
400.8954523378
 20
550.7189454743
 30
0.0
 11
362.5408906795
 21
550.7189454743
 31
0.0
  0
LINE
  5
217
330
1F
100
AcDbEntity
  8
0
  6
Continuous
 62
     7
100
AcDbLine
 10
362.5408906795
 20
550.7189454743
 30
0.0
 11
362.1281715086
 21
546.7189454743
 31
0.0
  0
LINE
  5
218
330
1F
100
AcDbEntity
  8
0
  6
Continuous
 62
     7
100
AcDbLine
 10
362.1281715086
 20
546.7189454743
 30
0.0
 11
401.3081715086
 21
546.7189454743
 31
0.0
  0
LINE
  5
219
330
1F
100
AcDbEntity
  8
0
  6
Continuous
 62
     7
100
AcDbLine
 10
401.3081715086
 20
546.7189454743
 30
0.0
 11
400.8954523378
 21
550.7189454743
 31
0.0
  0
LINE
  5
21A
330
1F
100
AcDbEntity
  8
0
  6
Continuous
 62
     7
100
AcDbLine
 10
362.5408906795
 20
542.7189454743
 30
0.0
 11
363.8361106654
 21
538.7189454743
 31
0.0
  0
LINE
  5
21B
330
1F
100
AcDbEntity
  8
0
  6
Continuous
 62
     7
100
AcDbLine
 10
363.8361106654
 20
538.7189454743
 30
0.0
 11
399.6002323518
 21
538.7189454743
 31
0.0
  0
LINE
  5
21C
330
1F
100
AcDbEntity
  8
0
  6
Continuous
 62
     7
100
AcDbLine
 10
399.6002323518
 20
538.7189454743
 30
0.0
 11
400.8954523378
 21
542.7189454743
 31
0.0
  0
LINE
  5
21D
330
1F
100
AcDbEntity
  8
0
  6
Continuous
 62
     7
100
AcDbLine
 10
400.8954523378
 20
542.7189454743
 30
0.0
 11
362.5408906795
 21
542.7189454743
 31
0.0
  0
LINE
  5
21E
330
1F
100
AcDbEntity
  8
0
  6
Continuous
 62
     7
100
AcDbLine
 10
366.233724473
 20
534.7189454743
 30
0.0
 11
397.058663867
 21
534.5354568851
 31
0.0
  0
LINE
  5
21F
330
1F
100
AcDbEntity
  8
0
  6
Continuous
 62
     7
100
AcDbLine
 10
397.058663867
 20
534.5354568851
 30
0.0
 11
393.0216267326
 21
530.7189454743
 31
0.0
  0
LINE
  5
220
330
1F
100
AcDbEntity
  8
0
  6
Continuous
 62
     7
100
AcDbLine
 10
393.0216267326
 20
530.7189454743
 30
0.0
 11
370.4147162847
 21
530.7189454743
 31
0.0
  0
LINE
  5
221
330
1F
100
AcDbEntity
  8
0
  6
Continuous
 62
     7
100
AcDbLine
 10
370.4147162847
 20
530.7189454743
 30
0.0
 11
366.233724473
 21
534.7189454743
 31
0.0
  0
LINE
  5
222
330
1F
100
AcDbEntity
  8
0
  6
Continuous
 62
     7
100
AcDbLine
 10
278.4147162847
 20
530.7189454743
 30
0.0
 11
274.3776791502
 21
534.5354568851
 31
0.0
  0
LINE
  5
223
330
1F
100
AcDbEntity
  8
0
  6
Continuous
 62
     7
100
AcDbLine
 10
274.3776791502
 20
534.5354568851
 30
0.0
 11
305.2026185443
 21
534.7189454743
 31
0.0
  0
LINE
  5
224
330
1F
100
AcDbEntity
  8
0
  6
Continuous
 62
     7
100
AcDbLine
 10
305.2026185443
 20
534.7189454743
 30
0.0
 11
301.0216267326
 21
530.7189454743
 31
0.0
  0
LINE
  5
225
330
1F
100
AcDbEntity
  8
0
  6
Continuous
 62
     7
100
AcDbLine
 10
301.0216267326
 20
530.7189454743
 30
0.0
 11
278.4147162847
 21
530.7189454743
 31
0.0
  0
LINE
  5
226
330
1F
100
AcDbEntity
  8
0
  6
Continuous
 62
     7
100
AcDbLine
 10
271.8361106654
 20
538.7189454743
 30
0.0
 11
270.5408906795
 21
542.7189454743
 31
0.0
  0
LINE
  5
227
330
1F
100
AcDbEntity
  8
0
  6
Continuous
 62
     7
100
AcDbLine
 10
270.5408906795
 20
542.7189454743
 30
0.0
 11
308.8954523378
 21
542.7189454743
 31
0.0
  0
LINE
  5
228
330
1F
100
AcDbEntity
  8
0
  6
Continuous
 62
     7
100
AcDbLine
 10
308.8954523378
 20
542.7189454743
 30
0.0
 11
307.6002323518
 21
538.7189454743
 31
0.0
  0
LINE
  5
229
330
1F
100
AcDbEntity
  8
0
  6
Continuous
 62
     7
100
AcDbLine
 10
307.6002323518
 20
538.7189454743
 30
0.0
 11
271.8361106654
 21
538.7189454743
 31
0.0
  0
LINE
  5
22A
330
1F
100
AcDbEntity
  8
0
  6
Continuous
 62
     7
100
AcDbLine
 10
270.1281715086
 20
546.7189454743
 30
0.0
 11
270.5408906795
 21
550.7189454743
 31
0.0
  0
LINE
  5
22B
330
1F
100
AcDbEntity
  8
0
  6
Continuous
 62
     7
100
AcDbLine
 10
270.5408906795
 20
550.7189454743
 30
0.0
 11
308.8954523378
 21
550.7189454743
 31
0.0
  0
LINE
  5
22C
330
1F
100
AcDbEntity
  8
0
  6
Continuous
 62
     7
100
AcDbLine
 10
308.8954523378
 20
550.7189454743
 30
0.0
 11
309.3081715086
 21
546.7189454743
 31
0.0
  0
LINE
  5
22D
330
1F
100
AcDbEntity
  8
0
  6
Continuous
 62
     7
100
AcDbLine
 10
309.3081715086
 20
546.7189454743
 30
0.0
 11
270.1281715086
 21
546.7189454743
 31
0.0
  0
LINE
  5
22E
330
1F
100
AcDbEntity
  8
0
  6
Continuous
 62
     7
100
AcDbLine
 10
271.8361106654
 20
554.7189454743
 30
0.0
 11
274.3776791502
 21
558.9024340634
 31
0.0
  0
LINE
  5
22F
330
1F
100
AcDbEntity
  8
0
  6
Continuous
 62
     7
100
AcDbLine
 10
274.3776791502
 20
558.9024340634
 30
0.0
 11
305.2026185443
 21
558.7189454743
 31
0.0
  0
LINE
  5
230
330
1F
100
AcDbEntity
  8
0
  6
Continuous
 62
     7
100
AcDbLine
 10
305.2026185443
 20
558.7189454743
 30
0.0
 11
307.6002323518
 21
554.7189454743
 31
0.0
  0
LINE
  5
231
330
1F
100
AcDbEntity
  8
0
  6
Continuous
 62
     7
100
AcDbLine
 10
307.6002323518
 20
554.7189454743
 30
0.0
 11
271.8361106654
 21
554.7189454743
 31
0.0
  0
LINE
  5
232
330
1F
100
AcDbEntity
  8
0
  6
Continuous
 62
     7
100
AcDbLine
 10
301.0216267326
 20
562.7189454743
 30
0.0
 11
278.4147162847
 21
562.7189454743
 31
0.0
  0
POINT
  5
233
330
1F
100
AcDbEntity
  8
0
  6
Continuous
 62
     7
100
AcDbPoint
 10
305.1702730289
 20
658.3614646457
 30
0.0
  0
POINT
  5
234
330
1F
100
AcDbEntity
  8
0
  6
Continuous
 62
     7
100
AcDbPoint
 10
306.7680740402
 20
773.1969939679
 30
0.0
  0
ENDSEC
  0
SECTION
  2
OBJECTS
  0
DICTIONARY
  5
C
330
0
100
AcDbDictionary
281
     1
  3
ACAD_GROUP
350
D
  3
ACAD_LAYOUT
350
1A
  3
ACAD_MLINESTYLE
350
17
  3
ACAD_PLOTSETTINGS
350
19
  3
ACAD_PLOTSTYLENAME
350
E
  3
ACAD_SCALELIST
350
47
  3
DWGPROPS
350
235
  0
DICTIONARY
  5
D
102
{ACAD_REACTORS
330
C
102
}
330
C
100
AcDbDictionary
281
     1
  0
DICTIONARY
  5
1A
102
{ACAD_REACTORS
330
C
102
}
330
C
100
AcDbDictionary
281
     1
  3
Layout1
350
1E
  3
Layout2
350
26
  3
Model
350
22
  0
DICTIONARY
  5
17
102
{ACAD_REACTORS
330
C
102
}
330
C
100
AcDbDictionary
281
     1
  3
Standard
350
18
  0
DICTIONARY
  5
19
102
{ACAD_REACTORS
330
C
102
}
330
C
100
AcDbDictionary
281
     1
  0
ACDBDICTIONARYWDFLT
  5
E
102
{ACAD_REACTORS
330
C
102
}
330
C
100
AcDbDictionary
281
     1
  3
Normal
350
F
100
AcDbDictionaryWithDefault
340
F
  0
DICTIONARY
  5
47
102
{ACAD_REACTORS
330
C
102
}
330
C
100
AcDbDictionary
281
     1
  3
A0
350
48
  3
A1
350
49
  3
A2
350
4A
  3
A3
350
4B
  3
A4
350
4C
  3
A5
350
4D
  3
A6
350
4E
  3
A7
350
4F
  3
A8
350
50
  3
A9
350
51
  3
B0
350
52
  3
B1
350
53
  3
B2
350
54
  3
B3
350
55
  3
B4
350
56
  3
B5
350
57
  3
B6
350
58
  3
B7
350
59
  3
B8
350
5A
  3
B9
350
5B
  3
C0
350
5C
  3
C1
350
5D
  3
C2
350
5E
  3
C3
350
5F
  3
C4
350
60
  3
C5
350
61
  3
C6
350
62
  3
C7
350
63
  3
C8
350
64
  3
C9
350
65
  3
D0
350
66
  3
D1
350
67
  3
D2
350
68
  0
XRECORD
  5
235
102
{ACAD_REACTORS
330
C
102
}
330
C
100
AcDbXrecord
280
     1
  1
DWGPROPS COOKIE
  2

  3

  4

  6

  7

  8
Alejoxbg
  9

300
=
301
=
302
=
303
=
304
=
305
=
306
=
307
=
308
=
309
=
 40
0.0
 41
2459312.057380394
 42
2459312.05740846
  1

 90
        0
  0
LAYOUT
  5
1E
102
{ACAD_REACTORS
330
1A
102
}
330
1A
100
AcDbPlotSettings
  1

  2
none_device
  4

  6

 40
0.0
 41
0.0
 42
0.0
 43
0.0
 44
0.0
 45
0.0
 46
0.0
 47
0.0
 48
0.0
 49
0.0
140
0.0
141
0.0
142
1.0
143
1.0
 70
   688
 72
     1
 73
     0
 74
     5
  7

 75
    16
147
1.0
148
0.0
149
0.0
100
AcDbLayout
  1
Layout1
 70
     1
 71
     1
 10
0.0
 20
0.0
 11
420.0
 21
297.0
 12
0.0
 22
0.0
 32
0.0
 14
1.0000000000E+20
 24
1.0000000000E+20
 34
1.0000000000E+20
 15
-1.0000000000E+20
 25
-1.0000000000E+20
 35
-1.0000000000E+20
146
0.0
 13
0.0
 23
0.0
 33
0.0
 16
1.0
 26
0.0
 36
0.0
 17
0.0
 27
1.0
 37
0.0
 76
     0
330
1B
  0
LAYOUT
  5
26
102
{ACAD_REACTORS
330
1A
102
}
330
1A
100
AcDbPlotSettings
  1

  2
none_device
  4

  6

 40
0.0
 41
0.0
 42
0.0
 43
0.0
 44
0.0
 45
0.0
 46
0.0
 47
0.0
 48
0.0
 49
0.0
140
0.0
141
0.0
142
1.0
143
1.0
 70
   688
 72
     1
 73
     0
 74
     5
  7

 75
    16
147
1.0
148
0.0
149
0.0
100
AcDbLayout
  1
Layout2
 70
     1
 71
     2
 10
0.0
 20
0.0
 11
0.0
 21
0.0
 12
0.0
 22
0.0
 32
0.0
 14
0.0
 24
0.0
 34
0.0
 15
0.0
 25
0.0
 35
0.0
146
0.0
 13
0.0
 23
0.0
 33
0.0
 16
1.0
 26
0.0
 36
0.0
 17
0.0
 27
1.0
 37
0.0
 76
     0
330
23
  0
LAYOUT
  5
22
102
{ACAD_REACTORS
330
1A
102
}
330
1A
100
AcDbPlotSettings
  1

  2
none_device
  4
ANSI_A_(11.00_x_8.50_Inches)
  6

 40
6.35
 41
19.05
 42
6.35000508
 43
19.05000254
 44
279.4
 45
215.9
 46
36.3048344256
 47
-19.1987808467
 48
0.0
 49
0.0
140
0.0
141
0.0
142
0.0102469771
143
1.0
 70
  1696
 72
     0
 73
     0
 74
     0
  7

 75
     0
147
0.0179189148
148
-1300.4909072572
149
0.0
100
AcDbLayout
  1
Model
 70
     1
 71
     0
 10
0.0
 20
0.0
 11
420.0
 21
297.0
 12
0.0
 22
0.0
 32
0.0
 14
5.5498355743
 24
4.7191931021
 34
0.0
 15
740.1677887634
 25
825.9369939679
 35
0.0
146
0.0
 13
0.0
 23
0.0
 33
0.0
 16
1.0
 26
0.0
 36
0.0
 17
0.0
 27
1.0
 37
0.0
 76
     0
330
1F
331
29
  0
MLINESTYLE
  5
18
102
{ACAD_REACTORS
330
17
102
}
330
17
100
AcDbMlineStyle
  2
Standard
 70
     0
  3

 62
   256
 51
90.0
 52
90.0
 71
     2
 49
0.5
 62
   256
  6
BYLAYER
 49
-0.5
 62
   256
  6
BYLAYER
  0
ACDBPLACEHOLDER
  5
F
102
{ACAD_REACTORS
330
E
102
}
330
E
  0
SCALE
  5
48
102
{ACAD_REACTORS
330
47
102
}
330
47
100
AcDbScale
 70
     0
300
1:1
140
1.0
141
1.0
290
     1
  0
SCALE
  5
49
102
{ACAD_REACTORS
330
47
102
}
330
47
100
AcDbScale
 70
     0
300
1:2
140
1.0
141
2.0
290
     0
  0
SCALE
  5
4A
102
{ACAD_REACTORS
330
47
102
}
330
47
100
AcDbScale
 70
     0
300
1:4
140
1.0
141
4.0
290
     0
  0
SCALE
  5
4B
102
{ACAD_REACTORS
330
47
102
}
330
47
100
AcDbScale
 70
     0
300
1:5
140
1.0
141
5.0
290
     0
  0
SCALE
  5
4C
102
{ACAD_REACTORS
330
47
102
}
330
47
100
AcDbScale
 70
     0
300
1:8
140
1.0
141
8.0
290
     0
  0
SCALE
  5
4D
102
{ACAD_REACTORS
330
47
102
}
330
47
100
AcDbScale
 70
     0
300
1:10
140
1.0
141
10.0
290
     0
  0
SCALE
  5
4E
102
{ACAD_REACTORS
330
47
102
}
330
47
100
AcDbScale
 70
     0
300
1:16
140
1.0
141
16.0
290
     0
  0
SCALE
  5
4F
102
{ACAD_REACTORS
330
47
102
}
330
47
100
AcDbScale
 70
     0
300
1:20
140
1.0
141
20.0
290
     0
  0
SCALE
  5
50
102
{ACAD_REACTORS
330
47
102
}
330
47
100
AcDbScale
 70
     0
300
1:30
140
1.0
141
30.0
290
     0
  0
SCALE
  5
51
102
{ACAD_REACTORS
330
47
102
}
330
47
100
AcDbScale
 70
     0
300
1:40
140
1.0
141
40.0
290
     0
  0
SCALE
  5
52
102
{ACAD_REACTORS
330
47
102
}
330
47
100
AcDbScale
 70
     0
300
1:50
140
1.0
141
50.0
290
     0
  0
SCALE
  5
53
102
{ACAD_REACTORS
330
47
102
}
330
47
100
AcDbScale
 70
     0
300
1:100
140
1.0
141
100.0
290
     0
  0
SCALE
  5
54
102
{ACAD_REACTORS
330
47
102
}
330
47
100
AcDbScale
 70
     0
300
2:1
140
2.0
141
1.0
290
     0
  0
SCALE
  5
55
102
{ACAD_REACTORS
330
47
102
}
330
47
100
AcDbScale
 70
     0
300
4:1
140
4.0
141
1.0
290
     0
  0
SCALE
  5
56
102
{ACAD_REACTORS
330
47
102
}
330
47
100
AcDbScale
 70
     0
300
8:1
140
8.0
141
1.0
290
     0
  0
SCALE
  5
57
102
{ACAD_REACTORS
330
47
102
}
330
47
100
AcDbScale
 70
     0
300
10:1
140
10.0
141
1.0
290
     0
  0
SCALE
  5
58
102
{ACAD_REACTORS
330
47
102
}
330
47
100
AcDbScale
 70
     0
300
100:1
140
100.0
141
1.0
290
     0
  0
SCALE
  5
59
102
{ACAD_REACTORS
330
47
102
}
330
47
100
AcDbScale
 70
     0
300
1/128" = 1'-0"
140
0.0078125
141
12.0
290
     0
  0
SCALE
  5
5A
102
{ACAD_REACTORS
330
47
102
}
330
47
100
AcDbScale
 70
     0
300
1/64" = 1'-0"
140
0.015625
141
12.0
290
     0
  0
SCALE
  5
5B
102
{ACAD_REACTORS
330
47
102
}
330
47
100
AcDbScale
 70
     0
300
1/32" = 1'-0"
140
0.03125
141
12.0
290
     0
  0
SCALE
  5
5C
102
{ACAD_REACTORS
330
47
102
}
330
47
100
AcDbScale
 70
     0
300
1/16" = 1'-0"
140
0.0625
141
12.0
290
     0
  0
SCALE
  5
5D
102
{ACAD_REACTORS
330
47
102
}
330
47
100
AcDbScale
 70
     0
300
3/32" = 1'-0"
140
0.09375
141
12.0
290
     0
  0
SCALE
  5
5E
102
{ACAD_REACTORS
330
47
102
}
330
47
100
AcDbScale
 70
     0
300
1/8" = 1'-0"
140
0.125
141
12.0
290
     0
  0
SCALE
  5
5F
102
{ACAD_REACTORS
330
47
102
}
330
47
100
AcDbScale
 70
     0
300
3/16" = 1'-0"
140
0.1875
141
12.0
290
     0
  0
SCALE
  5
60
102
{ACAD_REACTORS
330
47
102
}
330
47
100
AcDbScale
 70
     0
300
1/4" = 1'-0"
140
0.25
141
12.0
290
     0
  0
SCALE
  5
61
102
{ACAD_REACTORS
330
47
102
}
330
47
100
AcDbScale
 70
     0
300
3/8" = 1'-0"
140
0.375
141
12.0
290
     0
  0
SCALE
  5
62
102
{ACAD_REACTORS
330
47
102
}
330
47
100
AcDbScale
 70
     0
300
1/2" = 1'-0"
140
0.5
141
12.0
290
     0
  0
SCALE
  5
63
102
{ACAD_REACTORS
330
47
102
}
330
47
100
AcDbScale
 70
     0
300
3/4" = 1'-0"
140
0.75
141
12.0
290
     0
  0
SCALE
  5
64
102
{ACAD_REACTORS
330
47
102
}
330
47
100
AcDbScale
 70
     0
300
1" = 1'-0"
140
1.0
141
12.0
290
     0
  0
SCALE
  5
65
102
{ACAD_REACTORS
330
47
102
}
330
47
100
AcDbScale
 70
     0
300
1-1/2" = 1'-0"
140
1.5
141
12.0
290
     0
  0
SCALE
  5
66
102
{ACAD_REACTORS
330
47
102
}
330
47
100
AcDbScale
 70
     0
300
3" = 1'-0"
140
3.0
141
12.0
290
     0
  0
SCALE
  5
67
102
{ACAD_REACTORS
330
47
102
}
330
47
100
AcDbScale
 70
     0
300
6" = 1'-0"
140
6.0
141
12.0
290
     0
  0
SCALE
  5
68
102
{ACAD_REACTORS
330
47
102
}
330
47
100
AcDbScale
 70
     0
300
1'-0" = 1'-0"
140
12.0
141
12.0
290
     0
  0
ENDSEC
  0
EOF
